<svg xmlns="http://www.w3.org/2000/svg" xmlns:xlink="http://www.w3.org/1999/xlink" width="1500" height="1500" viewBox="0 0 1500 1500">
  <defs>
    <clipPath id="clip-undraw_road_to_knowledge_m8s0">
      <rect width="1500" height="1500"/>
    </clipPath>
  </defs>
  <g id="undraw_road_to_knowledge_m8s0" clip-path="url(#clip-undraw_road_to_knowledge_m8s0)">
    <rect width="1500" height="1500" fill="#fff"/>
    <g id="undraw_road_to_knowledge_m8s0-2" data-name="undraw_road_to_knowledge_m8s0">
      <rect id="Rectangle_2209" data-name="Rectangle 2209" width="1500" height="1500" fill="#fff" opacity="0"/>
      <path id="Path_16484" data-name="Path 16484" d="M842.331,1047.68a29.377,29.377,0,0,1,0-58.754H1278.59a25.516,25.516,0,0,0-22.4-13.322H389.012a42.7,42.7,0,0,0,0,85.4H1256.19a25.541,25.541,0,0,0,22.4-13.32Z" fill="#ccc"/>
      <path id="Path_16485" data-name="Path 16485" d="M1279.17,1005.11H864.389a2.395,2.395,0,0,1,0-4.79H1279.17a2.358,2.358,0,0,1,1.69.7,2.4,2.4,0,0,1,0,3.39A2.358,2.358,0,0,1,1279.17,1005.11Z" fill="#ccc"/>
      <path id="Path_16486" data-name="Path 16486" d="M1279.17,1020.7H864.389a2.4,2.4,0,0,1,0-4.8H1279.17a2.4,2.4,0,1,1,0,4.8Z" fill="#ccc"/>
      <path id="Path_16487" data-name="Path 16487" d="M1279.17,1036.29H864.389a2.439,2.439,0,0,1-1.692-.71,2.4,2.4,0,0,1,0-3.39,2.429,2.429,0,0,1,1.692-.7H1279.17a2.4,2.4,0,0,1,0,4.8Z" fill="#ccc"/>
      <path id="Path_16488" data-name="Path 16488" d="M729.644,964.948a29.375,29.375,0,0,1,0-58.75H1165.91a25.551,25.551,0,0,0-22.41-13.323H276.325a42.7,42.7,0,0,0,0,85.4H1143.5a25.551,25.551,0,0,0,22.41-13.323Z" fill="#ffc932"/>
      <path id="Path_16489" data-name="Path 16489" d="M1166.49,922.384H751.7a2.4,2.4,0,0,1,0-4.8H1166.49a2.4,2.4,0,0,1,0,4.8Z" fill="#ccc"/>
      <path id="Path_16490" data-name="Path 16490" d="M1166.49,937.97H751.7a2.4,2.4,0,1,1,0-4.8H1166.49a2.4,2.4,0,0,1,0,4.8Z" fill="#ccc"/>
      <path id="Path_16491" data-name="Path 16491" d="M1166.49,953.558H751.7a2.4,2.4,0,0,1,0-4.8H1166.49a2.432,2.432,0,0,1,.92.181,2.482,2.482,0,0,1,.78.519,2.4,2.4,0,0,1,0,3.4,2.4,2.4,0,0,1-1.7.7Z" fill="#ccc"/>
      <path id="Path_16492" data-name="Path 16492" d="M616.957,879.458a29.375,29.375,0,0,1,0-58.75H1053.22a25.551,25.551,0,0,0-22.41-13.323H163.638a42.7,42.7,0,0,0,0,85.4H1030.81a25.548,25.548,0,0,0,22.41-13.322Z" fill="#ccc"/>
      <path id="Path_16493" data-name="Path 16493" d="M1053.8,836.894H639.015a2.4,2.4,0,0,1,0-4.8H1053.8a2.4,2.4,0,0,1,0,4.8Z" fill="#ccc"/>
      <path id="Path_16494" data-name="Path 16494" d="M1053.8,852.48H639.015a2.4,2.4,0,1,1,0-4.8H1053.8a2.432,2.432,0,0,1,.92.182,2.349,2.349,0,0,1,.77.52,2.283,2.283,0,0,1,.52.778,2.311,2.311,0,0,1,0,1.835,2.274,2.274,0,0,1-.52.778,2.333,2.333,0,0,1-.77.52,2.415,2.415,0,0,1-.92.183Z" fill="#ccc"/>
      <path id="Path_16495" data-name="Path 16495" d="M1053.8,868.067H639.015a2.4,2.4,0,0,1,0-4.8H1053.8a2.416,2.416,0,0,1,.92.183,2.333,2.333,0,0,1,.77.52,2.273,2.273,0,0,1,.52.778,2.311,2.311,0,0,1,0,1.835,2.283,2.283,0,0,1-.52.778,2.349,2.349,0,0,1-.77.52,2.433,2.433,0,0,1-.92.182Z" fill="#ccc"/>
      <path id="Path_16496" data-name="Path 16496" d="M1063.38,697.083a8.963,8.963,0,0,1-8.94-8.385l-1.33-20.327a8.977,8.977,0,0,1,8.36-9.539l159.24-10.43a19.157,19.157,0,0,1,2.5,38.233l-159.23,10.429C1063.78,697.076,1063.58,697.083,1063.38,697.083Z" fill="#ffc932"/>
      <path id="Path_16497" data-name="Path 16497" d="M1094.78,699.7a8.979,8.979,0,0,1-8.96-8.637l-1.14-30.362a9.031,9.031,0,0,1,2.39-6.437,8.989,8.989,0,0,1,6.24-2.862l130.94-4.9a8.967,8.967,0,0,1,9.3,8.63l1.14,30.362a8.979,8.979,0,0,1-8.63,9.3L1095.11,699.7C1095,699.7,1094.89,699.7,1094.78,699.7Z" fill="#2f2e41"/>
      <path id="Path_16498" data-name="Path 16498" d="M1248.22,979.58h-20.37a8.981,8.981,0,0,1-8.97-8.971V800.825a8.979,8.979,0,0,1,8.97-8.971h20.37a8.979,8.979,0,0,1,8.97,8.971V970.609a8.981,8.981,0,0,1-8.97,8.971Z" fill="#2f2e41"/>
      <path id="Path_16499" data-name="Path 16499" d="M1157.81,889.834l-17.42-10.559a9,9,0,0,1-3.02-12.322l88-145.194a8.976,8.976,0,0,1,12.32-3.022l17.42,10.559a9,9,0,0,1,3.02,12.323l-88,145.194a8.977,8.977,0,0,1-12.32,3.021Z" fill="#2f2e41"/>
      <path id="Path_16500" data-name="Path 16500" d="M1217.28,614.667a70.39,70.39,0,1,0-70.38-70.39A70.385,70.385,0,0,0,1217.28,614.667Z" fill="#ffc932"/>
      <path id="Path_16501" data-name="Path 16501" d="M1179.19,568.311a16.709,16.709,0,0,1-6.1-3.579,11.254,11.254,0,0,1-3.28-8.887,7.668,7.668,0,0,1,1-3.3,7.515,7.515,0,0,1,2.36-2.513c2.52-1.615,5.88-1.62,9.31-.109l-.13-27.479,2.76-.013.15,32.3-2.13-1.337c-2.46-1.549-5.98-2.639-8.47-1.042a4.758,4.758,0,0,0-1.49,1.63,4.934,4.934,0,0,0-.61,2.122,8.546,8.546,0,0,0,.5,3.579,8.436,8.436,0,0,0,1.94,3.047c3.05,2.912,7.49,3.823,12.56,4.636l-.43,2.725a45.46,45.46,0,0,1-7.94-1.785Z" fill="#2f2e41"/>
      <path id="Path_16502" data-name="Path 16502" d="M1153.9,521.057l-.36,2.736,14.73,1.946.37-2.736Z" fill="#2f2e41"/>
      <path id="Path_16503" data-name="Path 16503" d="M1200.41,527.2l-.36,2.737,14.74,1.946.36-2.736Z" fill="#2f2e41"/>
      <path id="Path_16504" data-name="Path 16504" d="M1276.05,846.38H1157.37a11.745,11.745,0,0,1-11.73-11.732l24.85-190.556a11.716,11.716,0,0,1,11.72-11.643h42.12a63.537,63.537,0,0,1,63.45,63.462V834.648a11.745,11.745,0,0,1-11.73,11.732Z" fill="#2f2e41"/>
      <path id="Path_16505" data-name="Path 16505" d="M1378.16,771.292a8.976,8.976,0,0,1-1.34,9.671l-13.31,15.414a8.974,8.974,0,0,1-9.61,2.652,9.077,9.077,0,0,1-3.05-1.728L1230.1,692.962a19.158,19.158,0,1,1,25.05-28.992L1375.9,768.309a9.076,9.076,0,0,1,2.26,2.983Z" fill="#ffc932"/>
      <path id="Path_16506" data-name="Path 16506" d="M1351.51,736.859a8.977,8.977,0,0,1-1.34,9.671l-22.74,26.329a8.989,8.989,0,0,1-12.66.923L1215.62,688.1a8.969,8.969,0,0,1-3.08-6.136,8.954,8.954,0,0,1,2.16-6.518l22.74-26.329a8.97,8.97,0,0,1,9.61-2.651,8.9,8.9,0,0,1,3.04,1.728l99.16,85.677a9.087,9.087,0,0,1,2.26,2.983Z" fill="#2f2e41"/>
      <path id="Path_16507" data-name="Path 16507" d="M1218.6,502.528c-9.41-7.787-21.99-.422-32.62-1.468-10.18-1-18.38-9.959-20.61-19.6-2.6-11.248,3.04-22.674,11.55-29.879,9.31-7.892,21.82-10.345,33.74-9.144,13.66,1.377,26.24,7.493,37.57,14.966a168.138,168.138,0,0,1,30.06,24.511c8.1,8.614,15.02,18.934,17.39,30.687,2.16,10.682.9,22.588-5.27,31.789a33.362,33.362,0,0,1-12.87,11.019c-5.38,2.771-11.14,4.789-16.34,7.906-7.87,4.712-15.43,14.316-12.75,24.111a13.609,13.609,0,0,0,3.18,5.724c1.82,1.943,4.98-.731,3.16-2.679-3.2-3.422-3.17-8.068-1.57-12.256a22.412,22.412,0,0,1,9.77-11.167c5.45-3.255,11.49-5.315,17.08-8.292a37.187,37.187,0,0,0,13.46-11.594c6.58-9.522,8.37-21.785,6.63-33.065-1.89-12.206-8.39-23.208-16.45-32.377-8.77-9.979-19.47-18.364-30.38-25.871-11.7-8.056-24.6-14.81-38.76-17.072-12.28-1.961-25.52-.359-36.1,6.515-9.87,6.417-17.33,17.273-17.86,29.256a30.671,30.671,0,0,0,14.84,27.247,26.359,26.359,0,0,0,15.81,3.348c5.87-.488,11.73-2.4,17.65-2.013a12.368,12.368,0,0,1,7.33,2.8c2.05,1.7,4.4-1.714,2.36-3.4Z" fill="#2f2e41"/>
      <path id="Path_16508" data-name="Path 16508" d="M1135.84,869.405l.09-.466a8.922,8.922,0,0,1,3.91-5.647l17.11-11.041a8.974,8.974,0,0,1,12.4,2.676l52.8,81.873a8.978,8.978,0,0,1-2.67,12.4l-17.12,11.041a8.982,8.982,0,0,1-12.4-2.676l-52.8-81.873a8.882,8.882,0,0,1-1.32-6.289Z" fill="#2f2e41"/>
      <g id="Group_449" data-name="Group 449" transform="translate(-15072 14348)">
        <path id="Path_16589" data-name="Path 16589" d="M510.19,243.567a1.018,1.018,0,0,1-1.015-.947,35.991,35.991,0,0,0-35.8-33.349c-1.086,0-2.226.055-3.39.164a1.018,1.018,0,0,1-.979-.508,42.765,42.765,0,0,0-78.2,9.3,1.014,1.014,0,0,1-1,.735l-.271-.008c-.141,0-.282-.01-.424-.01a30.161,30.161,0,0,0-29.391,23.814,1.018,1.018,0,0,1-1,.808H290.5a1.018,1.018,0,1,1,0-2.037h67.409a32.216,32.216,0,0,1,31.168-24.622,44.8,44.8,0,0,1,81.375-9.557c1-.078,1.984-.117,2.929-.117a38.034,38.034,0,0,1,37.829,35.243,1.018,1.018,0,0,1-.945,1.087Z" transform="translate(15025.175 -14172.339)" fill="#ffc932"/>
        <path id="Path_16590" data-name="Path 16590" d="M498.073,256.625H331.063a1.018,1.018,0,1,1,0-2.037H498.073a1.018,1.018,0,1,1,0,2.037Z" transform="translate(15025.175 -14172.339)" fill="#ffc932"/>
        <path id="Path_16591" data-name="Path 16591" d="M371.8,271.391h-56.01a1.018,1.018,0,1,1,0-2.037H371.8a1.018,1.018,0,1,1,0,2.037Z" transform="translate(15025.175 -14172.339)" fill="#ffc932"/>
        <path id="Path_16592" data-name="Path 16592" d="M1045.19,319.567a1.018,1.018,0,0,1-1.015-.947,35.991,35.991,0,0,0-35.8-33.349c-1.086,0-2.226.055-3.39.164a1.018,1.018,0,0,1-.979-.508,42.765,42.765,0,0,0-78.2,9.3,1.014,1.014,0,0,1-1,.735l-.271-.008c-.141,0-.282-.01-.424-.01a30.161,30.161,0,0,0-29.391,23.814,1.018,1.018,0,0,1-1,.808H825.5a1.018,1.018,0,1,1,0-2.037h67.409a32.216,32.216,0,0,1,31.168-24.622,44.8,44.8,0,0,1,81.375-9.557c1-.078,1.984-.117,2.929-.117a38.034,38.034,0,0,1,37.829,35.243,1.018,1.018,0,0,1-.945,1.087Z" transform="translate(15025.175 -14172.339)" fill="#ffc932"/>
        <path id="Path_16593" data-name="Path 16593" d="M1033.073,332.625H866.063a1.018,1.018,0,0,1,0-2.037h167.011a1.018,1.018,0,0,1,0,2.037Z" transform="translate(15025.175 -14172.339)" fill="#ffc932"/>
        <path id="Path_16594" data-name="Path 16594" d="M906.8,347.391h-56.01a1.018,1.018,0,1,1,0-2.037H906.8a1.018,1.018,0,0,1,0,2.037Z" transform="translate(15025.175 -14172.339)" fill="#ffc932"/>
      </g>
    </g>
  </g>
</svg>
