<svg xmlns="http://www.w3.org/2000/svg" xmlns:xlink="http://www.w3.org/1999/xlink" width="1500" height="1500" viewBox="0 0 1500 1500">
  <defs>
    <clipPath id="clip-undraw_graduation_re_gthn">
      <rect width="1500" height="1500"/>
    </clipPath>
  </defs>
  <g id="undraw_graduation_re_gthn" clip-path="url(#clip-undraw_graduation_re_gthn)">
    <rect width="1500" height="1500" fill="#fff"/>
    <g id="undraw_graduation_re_gthn-2" data-name="undraw_graduation_re_gthn">
      <g id="undraw_graduation_re_gthn-3" data-name="undraw_graduation_re_gthn">
        <rect id="Rectangle_2315" data-name="Rectangle 2315" width="1500" height="1500" fill="#fff" opacity="0.001"/>
        <path id="Path_18193" data-name="Path 18193" d="M104.341,946.712a29.727,29.727,0,0,0,28.705-5.057c10.054-8.441,13.207-22.342,15.771-35.217l7.586-38.083-15.882,10.938c-11.423,7.866-23.1,15.985-31.01,27.378s-11.358,26.947-5.006,39.276" fill="#e6e6e6"/>
        <path id="Path_18194" data-name="Path 18194" d="M106.793,995.469c-2-14.567-4.055-29.321-2.65-44.044,1.246-13.076,5.234-25.844,13.355-36.318A60.407,60.407,0,0,1,133,901.06c1.549-.978,2.976,1.478,1.433,2.452a57.43,57.43,0,0,0-22.716,27.412c-4.946,12.58-5.74,26.295-4.888,39.659.515,8.082,1.609,16.11,2.708,24.13a1.471,1.471,0,0,1-.992,1.746,1.429,1.429,0,0,1-1.747-.992Z" fill="#f2f2f2"/>
        <path id="Path_18195" data-name="Path 18195" d="M121.182,972.1a21.881,21.881,0,0,0,19.067,9.846c9.655-.459,17.7-7.2,24.942-13.593l21.424-18.919-14.179-.679c-10.2-.488-20.656-.946-30.369,2.2s-18.669,10.715-20.444,20.769" fill="#e6e6e6"/>
        <path id="Path_18196" data-name="Path 18196" d="M101.143,1003.84c9.624-17.028,20.786-35.957,40.733-42.007a45.449,45.449,0,0,1,17.132-1.77c1.819.158,1.365,2.962-.45,2.8a42.227,42.227,0,0,0-27.342,7.235,71.071,71.071,0,0,0-18.792,20.282c-3.112,4.74-5.9,9.685-8.687,14.615C102.847,1006.58,100.242,1005.44,101.143,1003.84Z" fill="#f2f2f2"/>
        <path id="Path_18197" data-name="Path 18197" d="M984.68,924.448a40.929,40.929,0,0,0,39.53-6.964c13.84-11.623,18.19-30.765,21.72-48.495l10.44-52.442-21.87,15.062c-15.73,10.832-31.81,22.012-42.7,37.7s-15.641,37.108-6.894,54.085" fill="#e6e6e6"/>
        <path id="Path_18198" data-name="Path 18198" d="M988.057,991.592c-2.752-20.059-5.585-40.378-3.649-60.652,1.715-18.006,7.208-35.589,18.392-50.012a83.174,83.174,0,0,1,21.34-19.344c2.13-1.346,4.1,2.035,1.97,3.377a79.109,79.109,0,0,0-31.279,37.748c-6.81,17.324-7.9,36.21-6.731,54.613.71,11.129,2.216,22.185,3.73,33.228a2.027,2.027,0,0,1-1.366,2.405,1.967,1.967,0,0,1-2.4-1.366Z" fill="#f2f2f2"/>
        <path id="Path_18199" data-name="Path 18199" d="M1007.87,959.4a30.124,30.124,0,0,0,26.26,13.558c13.29-.631,24.37-9.907,34.34-18.717l29.51-26.053-19.53-.935c-14.04-.673-28.44-1.3-41.82,3.032s-25.71,14.755-28.15,28.6" fill="#e6e6e6"/>
        <path id="Path_18200" data-name="Path 18200" d="M980.276,1003.12c13.253-23.452,28.624-49.518,56.094-57.849a62.564,62.564,0,0,1,23.59-2.437c2.51.217,1.88,4.078-.62,3.863a58.145,58.145,0,0,0-37.65,9.962c-10.62,7.228-18.88,17.276-25.879,27.931-4.285,6.527-8.124,13.331-11.962,20.13C982.622,1006.89,979.035,1005.32,980.276,1003.12Z" fill="#f2f2f2"/>
        <path id="Path_18201" data-name="Path 18201" d="M860.466,571.547a6.211,6.211,0,0,1-3.461-7.508,3,3,0,0,0,.135-.689h0a3.115,3.115,0,0,0-5.6-2.065h0a2.97,2.97,0,0,0-.344.612,6.212,6.212,0,0,1-7.508,3.461,3,3,0,0,0-.689-.135h0a3.116,3.116,0,0,0-2.064,5.6,2.985,2.985,0,0,0,.611.344,6.214,6.214,0,0,1,3.462,7.509,2.954,2.954,0,0,0-.135.689h0a3.114,3.114,0,0,0,5.6,2.065h0a3.045,3.045,0,0,0,.345-.612,6.212,6.212,0,0,1,7.507-3.462,2.951,2.951,0,0,0,.689.135h0a3.116,3.116,0,0,0,2.065-5.6h0A3.046,3.046,0,0,0,860.466,571.547Z" fill="#cbcbcb"/>
        <path id="Path_18202" data-name="Path 18202" d="M978.8,847.147a6.212,6.212,0,0,1-3.461-7.509,3,3,0,0,0,.135-.689h0a3.115,3.115,0,0,0-5.6-2.065h0a2.952,2.952,0,0,0-.345.612,6.21,6.21,0,0,1-7.508,3.462,2.981,2.981,0,0,0-.689-.135h0a3.115,3.115,0,0,0-2.064,5.6,2.952,2.952,0,0,0,.612.345,6.212,6.212,0,0,1,3.461,7.509,2.992,2.992,0,0,0-.135.689,3.115,3.115,0,0,0,5.6,2.065,2.951,2.951,0,0,0,.345-.612,6.21,6.21,0,0,1,7.507-3.462,3,3,0,0,0,.689.135h0a3.115,3.115,0,0,0,2.065-5.6h0a3,3,0,0,0-.612-.345Z" fill="#f1f1f1"/>
        <path id="Path_18203" data-name="Path 18203" d="M358.386,686.522a6.213,6.213,0,0,1-3.461-7.509,3.046,3.046,0,0,0,.135-.689h0a3.116,3.116,0,0,0-5.6-2.065h0a3,3,0,0,0-.344.612,6.211,6.211,0,0,1-7.508,3.462,3,3,0,0,0-.689-.135h0a3.115,3.115,0,0,0-2.064,5.6,2.943,2.943,0,0,0,.611.345,6.214,6.214,0,0,1,3.462,7.509,2.993,2.993,0,0,0-.136.689h0a3.116,3.116,0,0,0,5.6,2.065h0a2.994,2.994,0,0,0,.344-.612,6.211,6.211,0,0,1,7.508-3.462,3,3,0,0,0,.689.135h0a3.115,3.115,0,0,0,2.064-5.6h0a2.965,2.965,0,0,0-.611-.345Z" fill="#f1f1f1"/>
        <path id="Path_18204" data-name="Path 18204" d="M617.21,587.684a10.145,10.145,0,1,0-10.143-10.145A10.144,10.144,0,0,0,617.21,587.684Z" fill="#f1f1f1"/>
        <path id="Path_18205" data-name="Path 18205" d="M1158.17,560.631a10.145,10.145,0,1,0-10.14-10.144A10.142,10.142,0,0,0,1158.17,560.631Z" fill="#ffc932"/>
        <path id="Path_18206" data-name="Path 18206" d="M370.4,513.289a10.145,10.145,0,1,0-10.143-10.144A10.143,10.143,0,0,0,370.4,513.289Z" fill="#cbcbcb"/>
        <path id="Path_18207" data-name="Path 18207" d="M331.39,974.352a72.818,72.818,0,1,0-72.806-72.817A72.811,72.811,0,0,0,331.39,974.352Z" fill="#2f2e41"/>
        <path id="Path_18208" data-name="Path 18208" d="M320.331,958.682H298.213v39.635h22.118Z" fill="#2f2e41"/>
        <path id="Path_18209" data-name="Path 18209" d="M364.567,958.682H342.449v39.635h22.118Z" fill="#2f2e41"/>
        <path id="Path_18210" data-name="Path 18210" d="M316.644,1005.69c10.18,0,18.432-3.09,18.432-6.912s-8.252-6.913-18.432-6.913-18.432,3.1-18.432,6.913S306.465,1005.69,316.644,1005.69Z" fill="#2f2e41"/>
        <path id="Path_18211" data-name="Path 18211" d="M360.881,1004.77c10.179,0,18.431-3.1,18.431-6.914s-8.252-6.913-18.431-6.913-18.432,3.1-18.432,6.913S350.7,1004.77,360.881,1004.77Z" fill="#2f2e41"/>
        <path id="Path_18212" data-name="Path 18212" d="M409.845,869.715c15.767-15.782,24.534-32.589,19.58-37.54s-21.751,3.83-37.519,19.612-24.533,32.59-19.579,37.54S394.078,885.5,409.845,869.715Z" fill="#2f2e41"/>
        <path id="Path_18213" data-name="Path 18213" d="M272.706,894.4c4.954-4.951-3.812-21.758-19.58-37.54s-32.565-24.563-37.518-19.612,3.812,21.758,19.579,37.54S267.752,899.35,272.706,894.4Z" fill="#2f2e41"/>
        <path id="Path_18214" data-name="Path 18214" d="M328.327,916.1a24.887,24.887,0,1,0-24.883-24.887A24.884,24.884,0,0,0,328.327,916.1Z" fill="#fff"/>
        <path id="Path_18215" data-name="Path 18215" d="M328.327,899.511a8.3,8.3,0,1,0-8.295-8.295A8.3,8.3,0,0,0,328.327,899.511Z" fill="#3f3d56"/>
        <path id="Path_18216" data-name="Path 18216" d="M348.079,937.244a16.182,16.182,0,1,1-31.841,5.8h0l-.006-.031c-1.592-8.8,5.208-11.909,14-13.5S346.487,928.448,348.079,937.244Z" fill="#fff"/>
        <path id="Path_18217" data-name="Path 18217" d="M402.78,977.959a6.188,6.188,0,0,0-6.181,6.182v12.913a6.2,6.2,0,0,0,6.181,6.186h99.452a6.2,6.2,0,0,0,6.181-6.186V984.141a6.188,6.188,0,0,0-6.181-6.182Z" fill="#e5e5e5"/>
        <path id="Path_18218" data-name="Path 18218" d="M459.973,969.359a2.679,2.679,0,0,0-3.661.981l-3.7,6.4-3.622-7.159a2.68,2.68,0,1,0-4.783,2.42l2.818,5.572H446v26.044h13.786V977.576h-1.457l2.629-4.555a2.681,2.681,0,0,0-.981-3.662Z" fill="#ffc932"/>
        <path id="Path_18219" data-name="Path 18219" d="M329.515,853.773a128.64,128.64,0,0,1-38.146-5.829,4.273,4.273,0,0,1-2.962-4.054V814.25a4.232,4.232,0,0,1,4.226-4.227h74.382a4.232,4.232,0,0,1,4.226,4.227v29.623a4.235,4.235,0,0,1-3.007,4.057,133.853,133.853,0,0,1-38.719,5.843Z" fill="#ffc932"/>
        <path id="Path_18220" data-name="Path 18220" d="M370.4,814.251v4.954l-40.251,14.118a3.413,3.413,0,0,1-2.316-.034L289.252,818.8v-4.548a3.39,3.39,0,0,1,3.381-3.382h74.382a3.39,3.39,0,0,1,3.381,3.382Z" opacity="0.2"/>
        <path id="Path_18221" data-name="Path 18221" d="M329.019,827.594a4.242,4.242,0,0,1-1.486-.269l-57.648-21.65a4.227,4.227,0,0,1,.118-7.957l54.241-18.559a4.262,4.262,0,0,1,2.7-.011l60.537,20.183a4.227,4.227,0,0,1,.061,8l-57.13,20.027a4.231,4.231,0,0,1-1.4.237Z" fill="#ffc932"/>
        <path id="Path_18222" data-name="Path 18222" d="M276.574,826.085h-1.691V801.568h51.56v1.691H276.574Z" fill="#3f3d56"/>
        <path id="Path_18223" data-name="Path 18223" d="M275.728,831.158a3.382,3.382,0,1,0-3.381-3.382A3.382,3.382,0,0,0,275.728,831.158Z" fill="#3f3d56"/>
        <path id="Path_18224" data-name="Path 18224" d="M752.326,974.352a72.818,72.818,0,1,0-72.806-72.817A72.811,72.811,0,0,0,752.326,974.352Z" fill="#2f2e41"/>
        <path id="Path_18225" data-name="Path 18225" d="M741.267,958.682H719.148v39.635h22.119Z" fill="#2f2e41"/>
        <path id="Path_18226" data-name="Path 18226" d="M785.5,958.682H763.385v39.635H785.5Z" fill="#2f2e41"/>
        <path id="Path_18227" data-name="Path 18227" d="M737.58,1005.69c10.18,0,18.432-3.09,18.432-6.912s-8.252-6.913-18.432-6.913-18.432,3.1-18.432,6.913S727.4,1005.69,737.58,1005.69Z" fill="#2f2e41"/>
        <path id="Path_18228" data-name="Path 18228" d="M781.817,1004.77c10.179,0,18.431-3.1,18.431-6.914s-8.252-6.913-18.431-6.913-18.432,3.1-18.432,6.913S771.637,1004.77,781.817,1004.77Z" fill="#2f2e41"/>
        <path id="Path_18229" data-name="Path 18229" d="M830.781,869.715c15.767-15.782,24.533-32.589,19.58-37.54s-21.751,3.83-37.519,19.612-24.533,32.59-19.58,37.54S815.014,885.5,830.781,869.715Z" fill="#2f2e41"/>
        <path id="Path_18230" data-name="Path 18230" d="M687.341,937.306c12.723-18.326,18.374-36.421,12.622-40.416s-20.729,7.623-33.452,25.949-18.374,36.421-12.621,40.416S674.619,955.632,687.341,937.306Z" fill="#2f2e41"/>
        <path id="Path_18231" data-name="Path 18231" d="M749.262,916.1a24.887,24.887,0,1,0-24.882-24.887A24.884,24.884,0,0,0,749.262,916.1Z" fill="#fff"/>
        <path id="Path_18232" data-name="Path 18232" d="M757.715,891.056a8.3,8.3,0,1,0-8.294-8.3A8.294,8.294,0,0,0,757.715,891.056Z" fill="#3f3d56"/>
        <path id="Path_18233" data-name="Path 18233" d="M779.095,937.244c2.441,8.794-6.45,17.221-19.859,18.822s-26.258-4.231-28.7-13.025l-.009-.031c-2.428-8.8,7.942-11.909,21.353-13.5S776.667,928.448,779.095,937.244Z" fill="#fff"/>
        <path id="Path_18234" data-name="Path 18234" d="M726.851,858.678a128.591,128.591,0,0,1-37.566,8.825,4.273,4.273,0,0,1-4.26-2.655l-11.056-27.5a4.233,4.233,0,0,1,2.345-5.5l69.012-27.754a4.231,4.231,0,0,1,5.5,2.345l11.049,27.484a4.237,4.237,0,0,1-1.277,4.886,133.868,133.868,0,0,1-33.745,19.868Z" fill="#ffc932"/>
        <path id="Path_18235" data-name="Path 18235" d="M750.039,806.756l1.848,4.6L719.808,839.47a3.411,3.411,0,0,1-2.161.833l-41.2.95-1.7-4.22a3.393,3.393,0,0,1,1.876-4.4l69.012-27.754a3.389,3.389,0,0,1,4.4,1.876Z" opacity="0.2"/>
        <path id="Path_18236" data-name="Path 18236" d="M716.626,834.575a4.233,4.233,0,0,1-1.478.3L653.586,836.3a4.227,4.227,0,0,1-2.859-7.426l43.4-37.458a4.273,4.273,0,0,1,2.5-1.02l63.7-3.862a4.228,4.228,0,0,1,3.041,7.4l-45.536,39.9a4.218,4.218,0,0,1-1.208.741Z" fill="#ffc932"/>
        <path id="Path_18237" data-name="Path 18237" d="M667.405,852.744l-1.569.63-9.144-22.746,47.838-19.239.631,1.569L658.89,831.567Z" fill="#3f3d56"/>
        <path id="Path_18238" data-name="Path 18238" d="M667.251,858.009a3.382,3.382,0,1,0-3.381-3.381A3.381,3.381,0,0,0,667.251,858.009Z" fill="#3f3d56"/>
        <path id="Path_18239" data-name="Path 18239" d="M1029.5,729.49a128.559,128.559,0,0,1-29.31-25.114,4.285,4.285,0,0,1-.368-5.007l15.668-25.161a4.229,4.229,0,0,1,5.82-1.354l63.14,39.32A4.229,4.229,0,0,1,1085.8,718l-15.65,25.147a4.237,4.237,0,0,1-4.7,1.854,133.828,133.828,0,0,1-35.95-15.508Z" fill="#ffc932"/>
        <path id="Path_18240" data-name="Path 18240" d="M1085.09,717.549l-2.62,4.205-41.63-9.293a3.388,3.388,0,0,1-1.95-1.253l-25.09-32.694,2.4-3.861a3.42,3.42,0,0,1,2.11-1.5,3.383,3.383,0,0,1,2.55.419L1084,712.891a3.383,3.383,0,0,1,1.09,4.658Z" opacity="0.2"/>
        <path id="Path_18241" data-name="Path 18241" d="M1042.91,707a4.259,4.259,0,0,1-1.12-1.013l-37.5-48.854a4.225,4.225,0,0,1,1.77-6.49,4.2,4.2,0,0,1,2.54-.2l55.85,12.918a4.256,4.256,0,0,1,2.3,1.42l40.73,49.135a4.23,4.23,0,0,1-4.18,6.823l-59.08-13.2A4.239,4.239,0,0,1,1042.91,707Z" fill="#ffc932"/>
        <path id="Path_18242" data-name="Path 18242" d="M999.185,678l-1.435-.894,12.96-20.812,43.77,27.257-.9,1.434-42.33-26.363Z" fill="#3f3d56"/>
        <path id="Path_18243" data-name="Path 18243" d="M997.574,682.369a3.382,3.382,0,1,0-3.381-3.382A3.385,3.385,0,0,0,997.574,682.369Z" fill="#3f3d56"/>
        <path id="Path_18244" data-name="Path 18244" d="M1205.63,891.5a72.818,72.818,0,1,0-72.8-72.818A72.815,72.815,0,0,0,1205.63,891.5Z" fill="#2f2e41"/>
        <path id="Path_18245" data-name="Path 18245" d="M1256.1,856.443l-18.87,11.536L1257.9,901.8l18.87-11.536Z" fill="#2f2e41"/>
        <path id="Path_18246" data-name="Path 18246" d="M1218.36,879.515l-18.87,11.536,20.66,33.819,18.87-11.536Z" fill="#2f2e41"/>
        <path id="Path_18247" data-name="Path 18247" d="M1264.89,906.167c8.68-5.31,14.11-12.255,12.12-15.512s-10.65-1.6-19.33,3.714-14.12,12.254-12.13,15.512S1256.2,911.476,1264.89,906.167Z" fill="#2f2e41"/>
        <path id="Path_18248" data-name="Path 18248" d="M1226.66,928.452c8.69-5.31,14.11-12.255,12.12-15.512s-10.64-1.6-19.33,3.714-14.11,12.255-12.12,15.512S1217.97,933.761,1226.66,928.452Z" fill="#2f2e41"/>
        <path id="Path_18249" data-name="Path 18249" d="M1164.69,806.477c4.96-4.95-3.81-21.758-19.58-37.54s-32.56-24.563-37.51-19.612,3.81,21.758,19.58,37.54S1159.74,811.428,1164.69,806.477Z" fill="#2f2e41"/>
        <path id="Path_18250" data-name="Path 18250" d="M1304.07,880.407c5.75-3.995.1-22.09-12.62-40.416s-27.7-29.943-33.46-25.949-.1,22.09,12.62,40.416S1298.31,884.4,1304.07,880.407Z" fill="#2f2e41"/>
        <path id="Path_18251" data-name="Path 18251" d="M1183.34,823.108a24.887,24.887,0,1,0-24.89-24.887A24.884,24.884,0,0,0,1183.34,823.108Z" fill="#fff"/>
        <path id="Path_18252" data-name="Path 18252" d="M1174.88,798.064a8.3,8.3,0,1,0-8.29-8.3A8.3,8.3,0,0,0,1174.88,798.064Z" fill="#3f3d56"/>
        <path id="Path_18253" data-name="Path 18253" d="M1151.29,839.736c-4.71,7.732,1.57,18.192,14.05,23.364s26.41,3.1,31.12-4.637l.02-.027c4.71-7.737-4.43-13.526-16.91-18.69S1156,832,1151.29,839.736Z" fill="#fff"/>
        <path id="Path_18254" data-name="Path 18254" d="M1181.2,727.253c6.5-26.185,35.2-41.595,64.1-34.418s47.05,34.222,40.55,60.407-28.07,26.27-56.97,19.093S1174.7,753.438,1181.2,727.253Z" fill="#e6e6e6"/>
        <path id="Path_18255" data-name="Path 18255" d="M1434.31,1007H66.69a1.69,1.69,0,1,1,0-3.38H1434.31a1.69,1.69,0,0,1,0,3.38Z" fill="#cbcbcb"/>
      </g>
      <path id="Path_18256" data-name="Path 18256" d="M3944.438-13414.625v-126.594h72.25v-168.016H4132.2v-114.172h96.953v114.172h107.016v131.594h101.484v163.016" transform="translate(-3459 14164.625)" fill="none" stroke="#e6e6e6" stroke-width="3"/>
    </g>
  </g>
</svg>
