<svg xmlns="http://www.w3.org/2000/svg" xmlns:xlink="http://www.w3.org/1999/xlink" width="1500" height="1500" viewBox="0 0 1500 1500">
  <defs>
    <clipPath id="clip-path">
      <rect id="Rectangle_2201" data-name="Rectangle 2201" width="1232" height="918" transform="translate(134 291)" fill="#fff"/>
    </clipPath>
    <clipPath id="clip-undraw_environmental_study_re_q4q8">
      <rect width="1500" height="1500"/>
    </clipPath>
  </defs>
  <g id="undraw_environmental_study_re_q4q8" clip-path="url(#clip-undraw_environmental_study_re_q4q8)">
    <rect width="1500" height="1500" fill="#fff"/>
    <g id="undraw_environmental_study_re_q4q8-2" data-name="undraw_environmental_study_re_q4q8">
      <g id="undraw_environmental_study_re_q4q8-3" data-name="undraw_environmental_study_re_q4q8">
        <rect id="Rectangle_2200" data-name="Rectangle 2200" width="1500" height="1500" fill="#fff" opacity="0"/>
        <g id="Group_444" data-name="Group 444" clip-path="url(#clip-path)">
          <path id="Path_16204" data-name="Path 16204" d="M553.347,935.868a96.391,96.391,0,1,0-96.356-96.391A96.373,96.373,0,0,0,553.347,935.868Z" fill="#e5e5e5"/>
          <path id="Path_16205" data-name="Path 16205" d="M482.2,775.1A96.368,96.368,0,0,0,642.759,877.113,96.37,96.37,0,1,1,482.2,775.1Z" opacity="0.2"/>
          <path id="Path_16206" data-name="Path 16206" d="M553.612,839.477h.265l4.765,273.283H548.583Z" fill="#cbcbcb"/>
          <path id="Path_16207" data-name="Path 16207" d="M721.226,799.815a116.1,116.1,0,1,0-116.059-116.1A116.08,116.08,0,0,0,721.226,799.815Z" fill="#e5e5e5"/>
          <path id="Path_16208" data-name="Path 16208" d="M806.921,606.166a116.075,116.075,0,0,1-193.39,122.879,116.077,116.077,0,1,0,193.39-122.879Z" opacity="0.2"/>
          <path id="Path_16209" data-name="Path 16209" d="M720.908,683.713h-.319L714.85,1012.88h12.116Z" fill="#cbcbcb"/>
          <path id="Path_16210" data-name="Path 16210" d="M505.775,574.96l15.758-12.608C509.291,561,504.261,567.68,502.2,572.966c-9.563-3.972-19.975,1.234-19.975,1.234l31.529,11.451a23.862,23.862,0,0,0-7.981-10.691Z" fill="#cbcbcb"/>
          <path id="Path_16211" data-name="Path 16211" d="M466.052,466.164l15.758-12.609c-12.241-1.351-17.271,5.328-19.33,10.615-9.564-3.973-19.975,1.233-19.975,1.233l31.529,11.451A23.861,23.861,0,0,0,466.052,466.164Z" fill="#cbcbcb"/>
          <path id="Path_16212" data-name="Path 16212" d="M689.285,536.505,705.043,523.9c-12.242-1.351-17.272,5.328-19.33,10.614-9.564-3.972-19.975,1.234-19.975,1.234l31.529,11.45a23.874,23.874,0,0,0-7.982-10.69Z" fill="#cbcbcb"/>
          <path id="Path_16213" data-name="Path 16213" d="M673.713,1012.38s.6-12.64,12.964-11.17Z" fill="#cbcbcb"/>
          <path id="Path_16214" data-name="Path 16214" d="M757.679,1012.38s.6-12.64,12.964-11.17Z" fill="#cbcbcb"/>
          <path id="Path_16215" data-name="Path 16215" d="M733.231,1012.38s.6-12.64,12.964-11.17Z" fill="#cbcbcb"/>
          <path id="Path_16216" data-name="Path 16216" d="M651.222,1012.38s-.6-12.64-12.964-11.17Z" fill="#cbcbcb"/>
          <path id="Path_16217" data-name="Path 16217" d="M703.61,1013.25s-.6-12.64-12.963-11.17Z" fill="#cbcbcb"/>
          <path id="Path_16218" data-name="Path 16218" d="M511.316,1111.66s.6-12.64,12.964-11.17Z" fill="#cbcbcb"/>
          <path id="Path_16219" data-name="Path 16219" d="M595.282,1111.66s.6-12.64,12.964-11.17Z" fill="#cbcbcb"/>
          <path id="Path_16220" data-name="Path 16220" d="M570.834,1111.66s.6-12.64,12.964-11.17Z" fill="#cbcbcb"/>
          <path id="Path_16221" data-name="Path 16221" d="M488.825,1111.66s-.6-12.64-12.964-11.17Z" fill="#cbcbcb"/>
          <path id="Path_16222" data-name="Path 16222" d="M541.214,1112.53s-.6-12.64-12.964-11.17Z" fill="#cbcbcb"/>
          <path id="Path_16223" data-name="Path 16223" d="M1148.43,519.2H986.856v14.4H1148.43Z" fill="#3f3d56"/>
          <path id="Path_16224" data-name="Path 16224" d="M1148.43,572.258H986.856v14.4H1148.43Z" fill="#3f3d56"/>
          <path id="Path_16225" data-name="Path 16225" d="M1148.43,619.789H986.856v14.4H1148.43Z" fill="#3f3d56"/>
          <path id="Path_16226" data-name="Path 16226" d="M926.081,526.4a18.783,18.783,0,1,1,18.785,18.792h0A18.809,18.809,0,0,1,926.081,526.4Z" fill="#ffc932"/>
          <path id="Path_16227" data-name="Path 16227" d="M926.081,579.458a18.809,18.809,0,1,1,5.508,13.282,18.8,18.8,0,0,1-5.508-13.282Z" fill="#ffc932"/>
          <path id="Path_16228" data-name="Path 16228" d="M926.081,626.991a18.783,18.783,0,1,1,18.785,18.792h0a18.809,18.809,0,0,1-18.785-18.792Z" fill="#ffc932"/>
          <path id="Path_16229" data-name="Path 16229" d="M767.737,652.9l-2.374-1.845,60.822-78.342H905.73v3.008H827.657Z" fill="#3f3d56"/>
          <path id="Path_16230" data-name="Path 16230" d="M295.578,690.678H134v14.4H295.578Z" fill="#3f3d56"/>
          <path id="Path_16231" data-name="Path 16231" d="M295.578,743.738H134v14.4H295.578Z" fill="#3f3d56"/>
          <path id="Path_16232" data-name="Path 16232" d="M295.578,791.271H134v14.4H295.578Z" fill="#3f3d56"/>
          <path id="Path_16233" data-name="Path 16233" d="M337.569,716.672a18.791,18.791,0,1,1,7.188-1.431A18.779,18.779,0,0,1,337.569,716.672Z" fill="#ffc932"/>
          <path id="Path_16234" data-name="Path 16234" d="M337.569,769.732a18.78,18.78,0,1,1,7.188-1.43,18.779,18.779,0,0,1-7.188,1.43Z" fill="#ffc932"/>
          <path id="Path_16235" data-name="Path 16235" d="M337.569,817.263a18.78,18.78,0,1,1,7.188-1.43,18.779,18.779,0,0,1-7.188,1.43Z" fill="#ffc932"/>
          <path id="Path_16236" data-name="Path 16236" d="M514.7,824.384l-59.922-77.178H376.7V744.2h79.544l.452.582,60.372,77.761Z" fill="#3f3d56"/>
          <path id="Path_16237" data-name="Path 16237" d="M856.722,302.59H695.144v14.4H856.722Z" fill="#3f3d56"/>
          <path id="Path_16238" data-name="Path 16238" d="M856.722,355.65H695.144v14.4H856.722Z" fill="#3f3d56"/>
          <path id="Path_16239" data-name="Path 16239" d="M856.722,403.182H695.144v14.4H856.722Z" fill="#3f3d56"/>
          <path id="Path_16240" data-name="Path 16240" d="M634.368,309.792a18.784,18.784,0,1,1,18.785,18.792h0a18.809,18.809,0,0,1-18.785-18.792Z" fill="#ffc932"/>
          <path id="Path_16241" data-name="Path 16241" d="M634.368,362.851a18.784,18.784,0,1,1,18.785,18.791h0a18.809,18.809,0,0,1-18.785-18.791Z" fill="#ffc932"/>
          <path id="Path_16242" data-name="Path 16242" d="M634.368,410.384a18.809,18.809,0,1,1,5.508,13.282,18.8,18.8,0,0,1-5.508-13.282Z" fill="#ffc932"/>
          <path id="Path_16243" data-name="Path 16243" d="M476.024,436.3l-2.374-1.844,60.822-78.343h79.546v3.009H535.944Z" fill="#3f3d56"/>
          <path id="Path_16244" data-name="Path 16244" d="M1272.93,1198.52h-10.14l-4.83-39.16h14.98Z" fill="#ffb7b7"/>
          <path id="Path_16245" data-name="Path 16245" d="M1275.52,1208.37H1242.8v-.42a12.735,12.735,0,0,1,12.73-12.74h19.99Z" fill="#2f2e41"/>
          <path id="Path_16246" data-name="Path 16246" d="M1229.33,1198.52h-10.15l-4.83-39.16h14.98Z" fill="#ffb7b7"/>
          <path id="Path_16247" data-name="Path 16247" d="M1231.92,1208.37h-32.73v-.42a12.735,12.735,0,0,1,12.74-12.74h19.99Z" fill="#2f2e41"/>
          <path id="Path_16248" data-name="Path 16248" d="M1206.22,941.591l-13.75,21.877,23.09,220.752,24.12,1.46,5.07-190.658,8.46,101.918-3.34,88.74,24.84,1.21,14.76-128.76,11.11-101.839-21.8-20.307Z" fill="#2f2e41"/>
          <path id="Path_16249" data-name="Path 16249" d="M1270.5,774.281l-37.59,1.5-34.83,171.908s56.62,28.106,79.56,2.558l13.79-10.1Z" fill="#ffc932"/>
          <path id="Path_16250" data-name="Path 16250" d="M1270.5,774.281l33.09,19.287-12.23,80.744,10.72,82.328-34.81-5.674s-7.12-76.654-2.5-100.722S1270.5,774.281,1270.5,774.281Z" fill="#3f3d56"/>
          <path id="Path_16251" data-name="Path 16251" d="M1232.91,775.785l-39.58,20.324,3.01,89.423-20.42,67.749s40.73,13.041,47.73-7.392S1232.91,775.785,1232.91,775.785Z" fill="#3f3d56"/>
          <path id="Path_16252" data-name="Path 16252" d="M1286.37,977.013a10.036,10.036,0,0,0,3.71-14.956l11.95-19.611-10.14-10.169-16.48,27.932a10.1,10.1,0,0,0,10.96,16.8Z" fill="#ffb7b7"/>
          <path id="Path_16253" data-name="Path 16253" d="M1286.42,804.565l15.77-12.5s14.91,12.211,14.54,23.914,4.1,74.049,4.1,74.049l-24.61,74.1-18.33-14.669,21.47-57.851-16.92-49.365Z" fill="#3f3d56"/>
          <path id="Path_16254" data-name="Path 16254" d="M1184.46,980.5a10.094,10.094,0,0,1-4.37-7.3,10.085,10.085,0,0,1,.51-4.325,9.944,9.944,0,0,1,2.29-3.706l-9.07-21.1,11.47-8.639,12.39,29.974a10.1,10.1,0,0,1-13.22,15.092Z" fill="#ffb7b7"/>
          <path id="Path_16255" data-name="Path 16255" d="M1208.68,809.77l-13.85-14.6s-16.48,9.988-17.77,21.627-14.48,72.734-14.48,72.734l13.94,76.832,20.21-11.941-13.11-60.3,23.69-46.49Z" fill="#3f3d56"/>
          <path id="Path_16256" data-name="Path 16256" d="M1252.91,763.045a25.685,25.685,0,1,0-25.68-25.686A25.676,25.676,0,0,0,1252.91,763.045Z" fill="#ffb7b7"/>
          <path id="Path_16257" data-name="Path 16257" d="M1246.7,714.551c-2.59-.458-5.16.722-7.56,1.8s-5.09,2.1-7.61,1.326a7.808,7.808,0,0,1-4.78-5.3,23.113,23.113,0,0,1-.64-7.364l2.73,1.581-1.87-3.141,26.65-2.945c8.06-.892,17.1-1.513,23.37,3.633a23.289,23.289,0,0,1,6.72,10.785c5.32,16.289,11.36,40.024-15.94,44.866-3.81-1.053,2.4-15.065,2.34-19.014s-2.24-8.388-6.14-8.994l-2.86,3.974c1.83-2.543-4.66-10.8-6.27-12.415a26.045,26.045,0,0,1-3.91-4.143C1249.64,717.221,1249.63,715.069,1246.7,714.551Z" fill="#2f2e41"/>
          <path id="Path_16258" data-name="Path 16258" d="M1364.5,1209H1095.34a1.5,1.5,0,0,1-1.06-.44,1.467,1.467,0,0,1-.45-1.06,1.52,1.52,0,0,1,1.51-1.51H1364.5a1.5,1.5,0,0,1,1.5,1.51,1.5,1.5,0,0,1-.44,1.06A1.517,1.517,0,0,1,1364.5,1209Z" fill="#cbcbcb"/>
        </g>
      </g>
      <path id="Subtraction_49" data-name="Subtraction 49" d="M-4917.269,15863h-162.467a30.983,30.983,0,0,1-2.417-6.651,31.271,31.271,0,0,1-.85-7.255,30.963,30.963,0,0,1,2.47-12.177,31.159,31.159,0,0,1,6.736-9.944,31.324,31.324,0,0,1,9.989-6.705,31.355,31.355,0,0,1,12.232-2.458,31.813,31.813,0,0,1,6.683.707,45.089,45.089,0,0,1,6.712-11.5,45.559,45.559,0,0,1,9.705-9.021,45.266,45.266,0,0,1,25.785-8,45.524,45.524,0,0,1,14.4,2.322,45.292,45.292,0,0,1,12.5,6.467,45.488,45.488,0,0,1,9.835,9.855,44.947,44.947,0,0,1,6.416,12.492,31.329,31.329,0,0,1,6.744-2.459,31.667,31.667,0,0,1,7.367-.864,31.358,31.358,0,0,1,12.233,2.458,31.327,31.327,0,0,1,9.988,6.705,31.174,31.174,0,0,1,6.734,9.944A30.971,30.971,0,0,1-4914,15849.1a31.309,31.309,0,0,1-.849,7.255,31.041,31.041,0,0,1-2.417,6.65Z" transform="translate(6050 -15602)" fill="#ffc932"/>
      <path id="Subtraction_50" data-name="Subtraction 50" d="M-4988.858,15831h-92.289a17.284,17.284,0,0,1-1.373-3.735,17.351,17.351,0,0,1-.483-4.075,17.216,17.216,0,0,1,1.4-6.839,17.5,17.5,0,0,1,3.827-5.586,17.8,17.8,0,0,1,5.674-3.766,17.988,17.988,0,0,1,6.948-1.381,18.243,18.243,0,0,1,3.8.4,25.254,25.254,0,0,1,3.813-6.462,25.754,25.754,0,0,1,5.513-5.066,25.914,25.914,0,0,1,14.647-4.491,26.141,26.141,0,0,1,8.183,1.3,25.853,25.853,0,0,1,7.1,3.632,25.711,25.711,0,0,1,5.587,5.536,25.156,25.156,0,0,1,3.644,7.017,17.891,17.891,0,0,1,3.831-1.382,18.2,18.2,0,0,1,4.186-.485,17.988,17.988,0,0,1,6.949,1.381,17.811,17.811,0,0,1,5.674,3.766,17.492,17.492,0,0,1,3.825,5.586,17.224,17.224,0,0,1,1.4,6.839,17.414,17.414,0,0,1-.482,4.075,17.328,17.328,0,0,1-1.373,3.735Z" transform="translate(5265 -15397)" fill="#ffc932"/>
    </g>
  </g>
</svg>
