<svg xmlns="http://www.w3.org/2000/svg" xmlns:xlink="http://www.w3.org/1999/xlink" width="1500" height="1500" viewBox="0 0 1500 1500">
  <defs>
    <clipPath id="clip-undraw_mathematics_-4-otb">
      <rect width="1500" height="1500"/>
    </clipPath>
  </defs>
  <g id="undraw_mathematics_-4-otb" clip-path="url(#clip-undraw_mathematics_-4-otb)">
    <rect width="1500" height="1500" fill="#fff"/>
    <g id="undraw_mathematics_-4-otb-2" data-name="undraw_mathematics_-4-otb">
      <g id="undraw_mathematics_-4-otb-3" data-name="undraw_mathematics_-4-otb">
        <rect id="Rectangle_2321" data-name="Rectangle 2321" width="1500" height="1500" fill="#fff" opacity="0"/>
        <path id="Path_18307" data-name="Path 18307" d="M1267.51,1270.85c0,45.37-245.24,82.15-547.757,82.15S172,1316.22,172,1270.85c0-32.11,122.926-59.94,302.077-73.43,73.876-5.58,157.346-8.71,245.676-8.71,36.311,0,71.791.53,106.1,1.54C1077.59,1197.67,1267.51,1230.93,1267.51,1270.85Z" fill="#3f3d56"/>
        <path id="Path_18308" data-name="Path 18308" d="M649.075,1287.64c116.127,0,210.266-11.47,210.266-25.62s-94.139-25.61-210.266-25.61-210.266,11.46-210.266,25.61S532.948,1287.64,649.075,1287.64Z" opacity="0.1"/>
        <path id="Path_18309" data-name="Path 18309" d="M648.192,1280.57c109.784,0,198.781-94.91,198.781-211.99s-89-211.986-198.781-211.986S449.41,951.5,449.41,1068.58,538.408,1280.57,648.192,1280.57Z" fill="#3f3d56"/>
        <path id="Path_18310" data-name="Path 18310" d="M710.918,1194.01H587.232v113.06H710.918Z" fill="#ffc932"/>
        <path id="Path_18311" data-name="Path 18311" d="M872.594,1221.39l-7.068,38.87,45.94,7.06,30.039-17.66-1.767-28.27Z" fill="#e6e6e6"/>
        <path id="Path_18312" data-name="Path 18312" d="M641.124,491.8s-3.534,40.631-12.369,42.4,19.437,72.429,19.437,72.429H690.6l33.572-8.833-15.9-38.864s-21.2-28.266-5.3-51.231S641.124,491.8,641.124,491.8Z" fill="#a0616a"/>
        <path id="Path_18313" data-name="Path 18313" d="M641.124,491.8s-3.534,40.631-12.369,42.4,19.437,72.429,19.437,72.429H690.6l33.572-8.833-15.9-38.864s-21.2-28.266-5.3-51.231S641.124,491.8,641.124,491.8Z" opacity="0.1"/>
        <path id="Path_18314" data-name="Path 18314" d="M552.777,802.715s-45.941,88.328-8.835,105.994,45.94,15.9,45.94,21.2-7.067,3.533-3.533,12.366-7.068,44.164,3.533,65.366,7.068,37.09,7.068,37.09,0,1.77,3.534,8.84,5.3,12.36,3.534,15.9-12.369,26.5-1.767,31.79,65.377,8.84,70.678,0-5.3-14.13,0-19.43,8.835-7.06,5.3-10.6-7.068-47.69-7.068-47.69,8.835-51.235,5.3-58.3-8.835-14.133-5.3-19.432,7.068-3.533,8.835-10.6,5.3-22.965,5.3-22.965l19.436-1.767,45.94,8.833s51.242,56.53,107.784,74.2c0,0,15.9,15.9,21.2,15.9s5.3,0,3.534,3.54-7.067,3.53-3.534,7.06,8.835-1.76,5.3,3.54-7.067,5.3-3.534,8.83-1.767,22.96-1.767,24.73-15.9,167.82-10.6,171.36,79.512,14.13,84.813,0-3.534-31.8-3.534-31.8,26.5-211.989,19.437-226.121-31.8-77.729-164.326-118.36c0,0-37.106-7.067-37.106-12.366s-3.534-38.865-10.6-40.631-47.707-3.534-47.707-3.534l-51.242,15.9-70.677-12.366Z" fill="#464353"/>
        <path id="Path_18315" data-name="Path 18315" d="M614.62,1099.5l-8.835,31.8s-7.068,51.23,1.767,63.59c6.939,9.71,19.33,21.61,42.308,23.7a28.41,28.41,0,0,0,29.647-19.64,8.878,8.878,0,0,0,.49-2.29c0-3.53-5.3-45.93-5.3-45.93l-8.835-44.17-1.767-12.36Z" fill="#464353"/>
        <path id="Path_18316" data-name="Path 18316" d="M872.594,1251.42s-8.835-8.83-10.6,0-8.835,45.93,3.534,47.7,130.754,19.43,143.124,12.36,35.34-17.66,21.2-22.96-54.774-21.2-54.774-21.2-22.97-30.03-26.5-31.8-22.97,1.77-31.8,8.84S872.594,1251.42,872.594,1251.42Z" fill="#464353"/>
        <path id="Path_18317" data-name="Path 18317" d="M683.531,528.9a54.764,54.764,0,1,0-54.776-54.763A54.769,54.769,0,0,0,683.531,528.9Z" fill="#a0616a"/>
        <path id="Path_18318" data-name="Path 18318" d="M678.23,597.791l-21.2-22.965-23.5-45.931s-17.137-5.3-20.671,3.533-67.144,37.1-67.144,37.1,15.9,148.392,8.835,162.524-19.437,70.663-8.835,75.963,60.076,0,75.979,7.066,61.843,7.066,74.211-1.766,15.9-15.9,28.271-10.6c10.53,4.512,35.146-149.736,42.233-195.7a20.92,20.92,0,0,0-8.672-20.333c-15.854-11.118-44.408-30.278-49.463-27.751C701.2,562.46,678.23,597.791,678.23,597.791Z" fill="#e6e6e6"/>
        <path id="Path_18319" data-name="Path 18319" d="M754.208,590.727a20.953,20.953,0,0,1,15.745,18.011l14.293,128.614s-35.339,75.962-53.008,24.732S754.208,590.727,754.208,590.727Z" fill="#e6e6e6"/>
        <path id="Path_18320" data-name="Path 18320" d="M750.674,749.717l38.873-10.6s7.068,49.464,14.136,49.464-24.737,28.265-40.64,24.732-38.873-15.9-40.64-24.732,15.9-45.931,15.9-45.931Z" fill="#e6e6e6"/>
        <path id="Path_18321" data-name="Path 18321" d="M642.181,497.756c3.725-8.211,3.078-17.789,6.157-26.263a31.326,31.326,0,0,1,47.625-14.805c3.961,2.824,7.932,6.791,12.767,6.252,5.207-.581,9.851-6.388,14.638-4.26,5.306,2.359,3.873,11.866,9.248,14.062,2.829,1.156,6.173-.624,7.8-3.208a19.826,19.826,0,0,0,2.272-8.791c.741-7.534,1.412-15.508-1.857-22.338a53.7,53.7,0,0,1-3.584-7.225,24.745,24.745,0,0,1-.681-7.127c-.03-8.856-.676-18.093-5.134-25.746-4.947-8.492-14.091-13.922-23.63-16.292s-19.533-2.006-29.328-1.177c-16.191,1.37-33.076,4.308-45.832,14.371a17.908,17.908,0,0,0-4.4,4.628,23.866,23.866,0,0,0-2.347,6.786,140.327,140.327,0,0,1-12.312,32.288,70.01,70.01,0,0,0-6.352,13.718c-1.353,4.866-1.262,10.411,1.57,14.593,2.3,3.405,5.991,5.22,8.887,8,2.869,2.759,4.211,8.064,7.39,10.152,2.774,1.824,6.1.537,8.928,2.469C637.639,490.327,637.9,495.768,642.181,497.756Z" fill="#464353"/>
        <path id="Path_18322" data-name="Path 18322" d="M687.064,624.291l5.3-10.6s77.746,22.966,93.648,44.165c0,0,38.873-24.732,60.076-21.2l21.2,3.533-65.377,58.3-83.047-7.067Z" fill="#f2f2f2"/>
        <path id="Path_18323" data-name="Path 18323" d="M683.531,613.691l-72.445,100.7,104.25,51.23s9.746,5.3,17.241,0l69.339-31.8,65.377-93.628-65.377,33.565s-7.068-14.133-21.2-7.067Z" fill="#ffc932"/>
        <path id="Path_18324" data-name="Path 18324" d="M794.848,792.115l14.136-37.1s31.8-40.631,14.135-60.063-37.106,56.53-37.106,56.53Z" fill="#a0616a"/>
        <path id="Path_18325" data-name="Path 18325" d="M631.755,786.2l30.844-25S710.5,742,704.968,716.328,644.5,746.616,644.5,746.616Z" fill="#a0616a"/>
        <path id="Path_18326" data-name="Path 18326" d="M555.427,607.508H553.66s-27.387-32.681-32.688,11.483S498,809.78,543.942,815.08,622.571,793,622.571,793s33.572-51.231,21.2-51.231c-5.984,0-22.26-2.687-37.106-1.766-15.836.982-30.066,5.442-29.154.883C579.281,732.051,604.9,619.874,555.427,607.508Z" opacity="0.1"/>
        <path id="Path_18327" data-name="Path 18327" d="M552.777,573.06l-7.068-3.533s-28.271,5.3-33.572,49.464-22.97,190.79,22.97,196.089,107.784-7.066,107.784-7.066,12.368-67.13,0-67.13-75.979,8.833-74.212,0S602.251,585.426,552.777,573.06Z" fill="#e6e6e6"/>
        <path id="Path_18328" data-name="Path 18328" d="M769.228,771.8l19.484-29.857,12.321,49.289-31.8,14.133Z" fill="#e6e6e6"/>
        <path id="Path_18330" data-name="Path 18330" d="M425.509,653.439H312.425V766.5H425.509Z" fill="#f2f2f2"/>
        <path id="Path_18331" data-name="Path 18331" d="M829.3,148l28.622,49.565,28.621,49.564H772.06l28.621-49.564Z" fill="#f2f2f2"/>
        <path id="Path_18332" data-name="Path 18332" d="M1328,445.188q-1.02,31.719-15.45,50.848t-34.28,19.132q-16.17,0-28.35-18.723t-12.18-57.6q0-8.6.41-16.37t1.03-14.733l7.16-67.32h-47.28q-12.285,127.683-20.16,151.931T1152.19,516.6a22.581,22.581,0,0,1-15.14-6.343,21.331,21.331,0,0,1-7.17-16.78q0-9.408,14.84-26.293t16.48-30.8l12.28-95.967h-19.85a35.178,35.178,0,0,0-16.07,3.99,30.251,30.251,0,0,0-11.56,9.31l-8.8,13.1h-7.17q10.035-31.1,24.66-46.756,14.64-15.654,33.67-15.654h156.37v36.014h-52.81q-2.46,24.553-3.78,49.108-1.335,24.555-1.33,49.314,0,16.782,7.77,27.215,7.785,10.436,19.45,10.436,7.155,0,15.04-5.832a21.118,21.118,0,0,0,8.9-15.244q.615-4.5.92-7.06c.21-1.7.31-2.761.31-3.171Z" fill="#ffc932"/>
        <path id="Path_18333" data-name="Path 18333" d="M1328,445.188q-1.02,31.719-15.45,50.848t-34.28,19.132q-16.17,0-28.35-18.723t-12.18-57.6q0-8.6.41-16.37t1.03-14.733l7.16-67.32h-47.28q-12.285,127.683-20.16,151.931T1152.19,516.6a22.581,22.581,0,0,1-15.14-6.343,21.331,21.331,0,0,1-7.17-16.78q0-9.408,14.84-26.293t16.48-30.8l12.28-95.967h-19.85a35.178,35.178,0,0,0-16.07,3.99,30.251,30.251,0,0,0-11.56,9.31l-8.8,13.1h-7.17q10.035-31.1,24.66-46.756,14.64-15.654,33.67-15.654h156.37v36.014h-52.81q-2.46,24.553-3.78,49.108-1.335,24.555-1.33,49.314,0,16.782,7.77,27.215,7.785,10.436,19.45,10.436,7.155,0,15.04-5.832a21.118,21.118,0,0,0,8.9-15.244q.615-4.5.92-7.06c.21-1.7.31-2.761.31-3.171Z" opacity="0.1"/>
        <path id="Path_18334" data-name="Path 18334" d="M1328,438.8q-1.02,31.719-15.45,50.848t-34.28,19.133q-16.17,0-28.35-18.723t-12.18-57.6q0-8.594.41-16.37t1.03-14.732l7.16-67.321h-47.28q-12.285,127.683-20.16,151.931t-26.71,24.248a22.572,22.572,0,0,1-15.14-6.343,21.331,21.331,0,0,1-7.17-16.779q0-9.41,14.84-26.294T1161.2,430l12.28-95.968h-19.85a35.19,35.19,0,0,0-16.07,3.99,30.251,30.251,0,0,0-11.56,9.31l-8.8,13.1h-7.17q10.035-31.1,24.66-46.756,14.64-15.654,33.67-15.653h156.37v36.013h-52.81q-2.46,24.555-3.78,49.109-1.335,24.555-1.33,49.314,0,16.781,7.77,27.215,7.785,10.436,19.45,10.435,7.155,0,15.04-5.832a21.118,21.118,0,0,0,8.9-15.244q.615-4.5.92-7.059c.21-1.7.31-2.762.31-3.172Z" fill="#ffc932"/>
      </g>
      <g id="Group_493" data-name="Group 493" transform="translate(-211.76 -261.695)">
        <path id="Path_140" data-name="Path 140" d="M319.37,264.055a19.145,19.145,0,1,1,19.145-19.145A19.145,19.145,0,0,1,319.37,264.055Zm0-37.629a18.485,18.485,0,1,0,18.485,18.485,18.485,18.485,0,0,0-18.485-18.485Z" transform="translate(128.736 282.105)" fill="#3f3d56"/>
        <path id="Path_174" data-name="Path 174" d="M581.37,264.055a19.145,19.145,0,1,1,19.145-19.145A19.145,19.145,0,0,1,581.37,264.055Zm0-37.629a18.485,18.485,0,1,0,18.485,18.485,18.485,18.485,0,0,0-18.485-18.485Z" transform="translate(60.805 282.105)" fill="#3f3d56"/>
        <path id="Path_146" data-name="Path 146" d="M561.847,217.47H228.339c-6.492.011-11.754,6.511-11.763,14.533V391c.009,8.021,5.27,14.518,11.763,14.533H561.847c6.492-.011,11.754-6.511,11.763-14.533V232c-.009-8.021-5.27-14.518-11.763-14.533ZM572.227,391c-.007,7.078-4.65,12.815-10.379,12.823H228.339c-5.73-.009-10.37-5.744-10.379-12.823V232c.007-7.078,4.65-12.815,10.379-12.823H561.847c5.729.009,10.37,5.744,10.379,12.823Z" transform="translate(150.424 284.256)" fill="#3f3d56"/>
        <rect id="Rectangle_21" data-name="Rectangle 21" width="59.258" height="41.481" transform="translate(391.444 565.678)" fill="#f2f2f2"/>
        <rect id="Rectangle_30" data-name="Rectangle 30" width="59.258" height="41.481" transform="translate(474.405 565.678)" fill="#f2f2f2"/>
        <rect id="Rectangle_31" data-name="Rectangle 31" width="59.258" height="41.481" transform="translate(557.366 565.678)" fill="#f2f2f2"/>
        <rect id="Rectangle_32" data-name="Rectangle 32" width="59.258" height="41.481" transform="translate(640.327 565.678)" fill="#f2f2f2"/>
        <rect id="Rectangle_33" data-name="Rectangle 33" width="59.258" height="41.481" transform="translate(391.444 626.417)" fill="#f2f2f2"/>
        <rect id="Rectangle_34" data-name="Rectangle 34" width="59.258" height="41.481" transform="translate(474.405 626.417)" fill="#f2f2f2"/>
        <rect id="Rectangle_35" data-name="Rectangle 35" width="59.258" height="41.481" transform="translate(557.366 626.417)" fill="#f2f2f2"/>
        <rect id="Rectangle_36" data-name="Rectangle 36" width="59.258" height="41.481" transform="translate(640.327 626.417)" fill="#f2f2f2"/>
        <path id="Path_168" data-name="Path 168" d="M383.329,424.193l-13.989-19.319,3.81-2.758L383.859,416.9l40.975-42.1,3.37,3.281Z" transform="translate(110.816 243.463)" fill="#3f3d56"/>
        <path id="Path_176" data-name="Path 176" d="M496.329,342.193l-13.989-19.319,3.81-2.758L496.859,334.9l40.975-42.1,3.37,3.281Z" transform="translate(81.518 264.723)" fill="#ffc932"/>
        <rect id="Rectangle_38" data-name="Rectangle 38" width="1.013" height="71.102" transform="translate(447.346 456)" fill="#2f2e41"/>
        <rect id="Rectangle_40" data-name="Rectangle 40" width="1.013" height="71.102" transform="translate(642.156 456)" fill="#2f2e41"/>
        <path id="Path_238" data-name="Path 238" d="M272.329,342.193l-13.989-19.319,3.81-2.758L272.859,334.9l40.975-42.1,3.37,3.281Z" transform="translate(139.595 264.723)" fill="#ffc932"/>
      </g>
    </g>
  </g>
</svg>
