<svg xmlns="http://www.w3.org/2000/svg" xmlns:xlink="http://www.w3.org/1999/xlink" width="1500" height="1500" viewBox="0 0 1500 1500">
  <defs>
    <clipPath id="clip-path">
      <rect id="Rectangle_2364" data-name="Rectangle 2364" width="1223" height="906" transform="translate(138 297)" fill="#fff"/>
    </clipPath>
    <clipPath id="clip-undraw_reading_time_re_phf7">
      <rect width="1500" height="1500"/>
    </clipPath>
  </defs>
  <g id="undraw_reading_time_re_phf7" clip-path="url(#clip-undraw_reading_time_re_phf7)">
    <rect width="1500" height="1500" fill="#fff"/>
    <g id="undraw_reading_time_re_phf7-2" data-name="undraw_reading_time_re_phf7">
      <g id="undraw_reading_time_re_phf7-3" data-name="undraw_reading_time_re_phf7">
        <rect id="Rectangle_2363" data-name="Rectangle 2363" width="1500" height="1500" fill="#fff" opacity="0"/>
        <g id="Group_502" data-name="Group 502" clip-path="url(#clip-path)">
          <path id="Path_18721" data-name="Path 18721" d="M1245.43,1198.8H986.111v-7.96a26.05,26.05,0,0,1,26.049-26.05h207.22a26.05,26.05,0,0,1,26.05,26.05v7.96Z" fill="#e6e6e6"/>
          <path id="Path_18722" data-name="Path 18722" d="M1109.7,1166.38l7.89-3.17c-82.52-204.825-74.57-463.222-4.82-684.881a138.416,138.416,0,0,0-40.32-146.439c-40.48-36.13-96.3-44.931-145.67-22.972-48.733,21.679-55.45,59.44-55.45,97.018h8.5c0-40.112,8.572-70.64,50.4-89.249,46.273-20.58,98.594-12.325,136.554,21.548a129.982,129.982,0,0,1,37.87,137.54C1034.11,699.994,1026.62,960.166,1109.7,1166.38Z" fill="#e6e6e6"/>
          <path id="Path_18723" data-name="Path 18723" d="M877.707,531.35a29.759,29.759,0,1,0-29.758-29.759A29.758,29.758,0,0,0,877.707,531.35Z" fill="#e6e6e6"/>
          <path id="Path_18724" data-name="Path 18724" d="M831.877,553.468V497.082h8.768v56.386a11.689,11.689,0,1,1-8.768,0Z" fill="#e6e6e6"/>
          <path id="Path_18725" data-name="Path 18725" d="M789.5,453.763a48.945,48.945,0,0,1,48.888-48.89h80.771a48.89,48.89,0,0,1,0,97.78H838.384a48.945,48.945,0,0,1-48.888-48.89Z" fill="#ffc932"/>
          <path id="Path_18726" data-name="Path 18726" d="M675.693,756.52c8.11-103.758,49.574-153.194,23.023-184.2-25.431-29.7-97.068-23.561-143.074,4.934-124.09,76.859-169.552,383.188-9.867,532.852,151.74,142.22,439.318,96.67,503.225-19.73,14.91-27.16,26.76-74.78,4.94-103.614-54.188-71.591-251.189,58.084-338.778-23.025C663.254,915.676,671.242,813.463,675.693,756.52Z" fill="#555461"/>
          <path id="Path_18727" data-name="Path 18727" d="M770.549,704.972a12.737,12.737,0,0,0-6.389,16.575,12.328,12.328,0,0,0,.972,1.771L738.5,758.882l13.29,19.865,31.219-52.664a12.7,12.7,0,0,0,3.864-15.017,12.155,12.155,0,0,0-16.018-6.233C770.751,704.878,770.649,704.924,770.549,704.972Z" fill="#ffb6b6"/>
          <path id="Path_18728" data-name="Path 18728" d="M770.527,766.291c1.744,1.546-3.091,3.454-8.206.444-1.463-.871-2.088-1.233-2.253-1-.411.575,1.99,4.819,1.349,14.242-.4,5.625-9.736,16.2-20.343,26.511-14.341,13.947-31.016,27.4-31.016,27.4L704.2,829.2l-61.39-49.223-10.361-14.341a102.109,102.109,0,0,1,4.26-16.66,181.579,181.579,0,0,1,9.242-21.939c1.907-3.865,3.865-7.548,5.739-10.936l32.891,36.247L712.147,782.7s8.025-12.926,14.241-16.446a5.923,5.923,0,0,1,2.631-.9c6.283-.3,6.661-3.717-.624-11.167s1.907-.494,8.387-2.5,0,0,1.365-5.016,19.537-15.081,19.537-15.081l.756.674,13.732,12.121,3.931,3.47s-4.293,11.775-5.477,14.259S768.8,764.729,770.527,766.291Z" fill="#ffc932"/>
          <path id="Path_18729" data-name="Path 18729" d="M1132.52,994.753l.67-18.141L1063.54,965.4l-.99,26.773Z" fill="#ffb6b6"/>
          <path id="Path_18730" data-name="Path 18730" d="M1119.87,1000.22l-.66-29.05,12.42.458,20.05-26.851a7.759,7.759,0,0,1,13.97,4.929l-1.27,34.5-12.5,5.494,12.19,2.776-.48,13.011Z" fill="#3f3d56"/>
          <path id="Path_18731" data-name="Path 18731" d="M740.527,1001.82l220.6,5.59s95.259,5.5,117.619-9.039l23.57-2.975,1.27-34.624s-14.41.106-22.7-3.755-2.52-8.586-10.42-3.94-7.07,5.2-13.18,3.069-286.231-44.834-286.231-44.834Z" fill="#3f3d56"/>
          <path id="Path_18732" data-name="Path 18732" d="M1031.22,986.79l12.83-12.842-43.43-55.594L981.687,937.31Z" fill="#ffb6b6"/>
          <path id="Path_18733" data-name="Path 18733" d="M1018.24,975.617l19.27-21.742,8.79,8.781,32.96-6.051a7.763,7.763,0,0,1,6.89,13.119l-24.4,24.428-12.9-4.475,7.05,10.333-9.2,9.21Z" fill="#3f3d56"/>
          <path id="Path_18734" data-name="Path 18734" d="M653.493,880.994l2.193,50.982c2.582,60.017,68.675,96.344,119.925,65.006q1.418-.867,2.843-1.795s19.429-5.218,18.839-13.481,4.157-12.285,8.358-10.032,59.2-75.8,59.2-75.8,114.265,57,139.473,70.419c0,0,23.7-37.059,21.98-36.67S884.943,832.27,884.943,832.27s-22.75-23.025-50.969-7.823c-.588,2.233-.085,2.311-.085,2.311l-93.22,75.962L727.5,877.705Z" fill="#3f3d56"/>
          <path id="Path_18735" data-name="Path 18735" d="M741.386,817.258a52.692,52.692,0,0,1-1,7.006,41.331,41.331,0,0,1-3.224,9.67s0,3.438-6.578,14.95,1.645,6.578,6.578,15.13c4.934,8.536,0,4.605-5.476,10.1a12.573,12.573,0,0,0-3.108,12.384s-70.649.049-83.806-4.884-16.149-32.728-4.358-35.475c11.775-2.746-3.568-5.476-10.492-11.808s6.924-16.693,6.924-16.693-5.707-9.851-5.23-42.924a65,65,0,0,1,.839-9.078,101.983,101.983,0,0,1,4.259-16.66,181.735,181.735,0,0,1,9.242-21.939c1.908-3.865,3.865-7.549,5.74-10.937.3-.526.575-1.036.871-1.546,3.569-6.315,6.825-11.479,8.979-14.785,1.661-2.565,2.665-4.013,2.665-4.013l11.972-20.82,39.962,18.732L713.873,724.3l6.89,23.106,3.174,10.641,2.45,8.207,3.783,12.713s-1.036.049.2,1.743a56.139,56.139,0,0,1,10.706,25.771,52.429,52.429,0,0,1,.313,10.772Z" fill="#ffc932"/>
          <path id="Path_18736" data-name="Path 18736" d="M856.793,820.56l-.75-.242-95.648-30.8L795.64,673.881a15.905,15.905,0,0,1,23.3-9.057l61.122,36.114A23.963,23.963,0,0,1,890.354,729.9Z" fill="#3f3d56"/>
          <path id="Path_18737" data-name="Path 18737" d="M857.181,827.911l-96.418-31.049,35.245-115.636a15.905,15.905,0,0,1,23.3-9.056l64.041,31.975c9.621,5.683,9.4,20.392,4.929,32.461Z" fill="#ffc932"/>
          <path id="Path_18738" data-name="Path 18738" d="M847.528,836.28a18.383,18.383,0,0,1-14.736,1.465L771.165,817.9A19.057,19.057,0,0,1,758.831,794.3l30.9-101.369A15.9,15.9,0,0,1,809.9,682.464l63.865,20.971a23.974,23.974,0,0,1,15.086,30.87l-33.036,92.1a18.411,18.411,0,0,1-8.29,9.871Z" fill="#555461"/>
          <path id="Path_18739" data-name="Path 18739" d="M713.883,675.289a44.142,44.142,0,1,0-44.141-44.142A44.142,44.142,0,0,0,713.883,675.289Z" fill="#ffb6b6"/>
          <path id="Path_18740" data-name="Path 18740" d="M564.619,675.954a38.285,38.285,0,0,0,18.8,17.575,44.027,44.027,0,0,0,10.131,3.206,39.631,39.631,0,0,1,4.688-11.1,32.708,32.708,0,0,0,0,11.723,38.9,38.9,0,0,0,15.734-1.953,33.751,33.751,0,0,0,21.221-21.5c3.516-11.7-.271-24.2-.569-36.412s5.492-26.824,17.617-28.335c9.234-1.153,8.093-.258,14.728,6.265-9.281,10.311,13.344,55.976,25.485,53.958,6.865-1.141,11.916-6.59,13.273-6.4,6.952,17.025-13.96,41.172,2.626,49.1l-1.23-1.628c-8.682-14.343,17.006-38.567,8.325-52.909-2.42-4.013-4.937-8.717-3.439-13.155,1.421-4.22,8.618-5.556,10.137-1.715-2.469-8.8,4.422-19.136,13.575-20.034,8.131-.8,7.662,1.515,15.415,3.63a39.548,39.548,0,0,1,4.246-9.5,32.419,32.419,0,0,0-.226,10.253,12.785,12.785,0,0,0,8.045-1.7c7.16-4.292,7.373-15.371,2.455-22.114s-13.18-10.074-21.142-12.594c-.074-16.839-45.381-24.9-53.714-9.244-.858-12.676-15.388-21.215-27.9-19.062s-22.392,12.19-28.412,23.378-9.008,23.695-13.414,35.6-10.706,23.779-21.257,30.844-26.23,7.7-35.039-1.448a27.952,27.952,0,0,0-.154,25.275Z" fill="#3f3d56"/>
          <path id="Path_18741" data-name="Path 18741" d="M609.911,877.815a15.958,15.958,0,0,1,2.955-1.871c16.895-8.409,69.436-30.237,110.518-29.341,79.046,1.723,179.643,88.965,156.231,147.55-17.814,44.577-106.381,69.937-171.032,49.657C618.013,1015.39,582.264,899.86,609.911,877.815Z" fill="#555461"/>
          <path id="Path_18742" data-name="Path 18742" d="M281.757,1198.97c-25.829-4.87-48.692-121.24,2.126-178.55,17.411-19.64,39.129-28.185,68.018-36.139,166.275-45.779,293.095-2.149,310.138,8.5,17.005,10.626,46.815,170.766,8.7,193.436-21.448,12.75-63.959,19.13-85.022,4.25-30.993-21.89,21.029-78.69-2.126-116.91-26.275-43.38-164.636-57.99-234-14.88C275.574,1104.67,428.228,1226.61,281.757,1198.97Z" fill="#f2f2f2"/>
          <path id="Path_18743" data-name="Path 18743" d="M454.448,1001.12H355.771c-24.359-23.348-41.776-45.848-27.832-64.524a20.241,20.241,0,0,1,20.242-20.242H462.038A20.239,20.239,0,0,1,482.279,936.6C487.588,957.876,478.1,979.387,454.448,1001.12Z" fill="#ccc"/>
          <path id="Path_18744" data-name="Path 18744" d="M436.726,890.871a4.572,4.572,0,0,1-3.313-7.923l.313-1.245c-.041-.1-.082-.2-.124-.3a12.275,12.275,0,0,0-22.643.084c-3.7,8.92-8.419,17.855-9.58,27.286a36.33,36.33,0,0,0,.638,12.49,145.606,145.606,0,0,1-13.244-60.472,140.392,140.392,0,0,1,.872-15.678q.722-6.4,2-12.711a147.291,147.291,0,0,1,29.207-62.424,39.185,39.185,0,0,0,16.3-16.913,29.914,29.914,0,0,0,2.72-8.171c-.794.1-2.993-11.983-2.394-12.724-1.106-1.678-3.086-2.513-4.293-4.15-6.008-8.145-14.284-6.723-18.6,4.345-9.229,4.659-9.319,12.385-3.655,19.815,3.6,4.727,4.1,11.124,7.259,16.185-.325.416-.663.82-.989,1.236a148.22,148.22,0,0,0-15.471,24.512,61.636,61.636,0,0,0-3.679-28.623c-3.521-8.5-10.122-15.65-15.934-22.994-6.981-8.821-21.3-4.972-22.527,6.211-.012.108-.024.216-.035.324q1.294.73,2.535,1.551a6.2,6.2,0,0,1-2.5,11.284l-.126.02a61.634,61.634,0,0,0,1.626,9.224c-7.456,28.837,8.641,39.34,31.627,39.812.507.26,1,.52,1.509.768a151.332,151.332,0,0,0-8.144,38.328,143.536,143.536,0,0,0,.1,23.172l-.039-.273a37.921,37.921,0,0,0-12.945-21.9c-9.962-8.183-24.036-11.2-34.783-17.775a7.116,7.116,0,0,0-10.9,6.923c.014.1.029.192.044.288a41.607,41.607,0,0,1,4.67,2.25q1.295.732,2.535,1.551a6.2,6.2,0,0,1-2.5,11.284l-.127.02-.26.039a61.75,61.75,0,0,0,11.357,17.785c4.663,25.173,24.687,27.562,46.107,20.231h.013a151.347,151.347,0,0,0,10.161,29.664h36.3c.13-.4.247-.82.364-1.223a41.235,41.235,0,0,1-10.044-.6c2.693-3.3,5.386-6.635,8.079-9.94a1.963,1.963,0,0,0,.169-.2c1.367-1.691,2.746-3.369,4.112-5.061v0a60.406,60.406,0,0,0-1.77-15.389Z" fill="#ccc"/>
          <path id="Path_18745" data-name="Path 18745" d="M560.53,995.83a8.783,8.783,0,0,0,8.449,5.92l36.2-.93a8.655,8.655,0,0,0,8.173-6.367l5.122-54.779a13.39,13.39,0,0,0,5.791,1.19,13.2,13.2,0,0,0-.662-26.4,11.263,11.263,0,0,0-2.373.247,8.946,8.946,0,0,0-6.66-2.874l-55.683,1.438a7.939,7.939,0,0,0-1.374.171,8.7,8.7,0,0,0-6.659,11.293Zm58.994-59.876,3.645-13.054a8.891,8.891,0,0,0,.028-4.611c.177,0,.333-.084.51-.085a9.443,9.443,0,0,1,.442,18.881,8.88,8.88,0,0,1-4.625-1.131Z" fill="#ccc"/>
          <path id="Path_18746" data-name="Path 18746" d="M557.512,913.448c1.186,6.784,14.524,11.553,30.561,10.724,14.748-.68,26.807-5.858,29.016-12a8.233,8.233,0,0,0-2.52-.336l-55.684,1.438a8.022,8.022,0,0,0-1.373.17Z" fill="#fff"/>
          <path id="Path_18747" data-name="Path 18747" d="M139.939,1201.54l1219.121.5a1.938,1.938,0,0,0,1.37-3.31,1.938,1.938,0,0,0-1.37-.57l-1219.121-.5A1.943,1.943,0,0,0,138,1199.6a1.943,1.943,0,0,0,1.939,1.94Z" fill="#cacaca"/>
          <path id="Path_18748" data-name="Path 18748" d="M823.707,768.246a12.738,12.738,0,0,0-12.271,12.845,12.31,12.31,0,0,0,.217,2.008l-38.26,22.589,4.631,23.448,49.067-36.611a12.7,12.7,0,0,0,9.34-12.377,12.152,12.152,0,0,0-12.39-11.913C823.929,768.237,823.818,768.241,823.707,768.246Z" fill="#ffb6b6"/>
          <path id="Path_18749" data-name="Path 18749" d="M792.365,822.1c-1.024-1.371-1.464-1.945-1.7-1.787-.6.361-.023,5.206-4.237,13.649C780.5,845.822,718.3,863.99,718.3,863.99l-7.658-14.021-33.684-61.613-11.61-49.386a22.028,22.028,0,0,1-.587-5.256,208.678,208.678,0,0,1,32.843-18.9,21.986,21.986,0,0,1,9.868,11.757l23.187,65.015,9.252,25.959s16.321-11.672,22.242-9.529,7.59-.867,3.726-10.543,1.936.284,8.685.917,0,0,3.194-4.106,23.844-6.416,23.844-6.416l.439.916,8,16.462,2.291,4.73s-8.484,9.206-10.531,11.04-2.692,1.72-1.685,3.826S795.919,826.837,792.365,822.1Z" fill="#ffc932"/>
        </g>
      </g>
      <rect id="Rectangle_2365" data-name="Rectangle 2365" width="405.24" height="2" transform="translate(372.699 474.04)" fill="#ccc"/>
      <rect id="Rectangle_2366" data-name="Rectangle 2366" width="2" height="186.036" transform="translate(574 289.002)" fill="#ccc"/>
      <rect id="Rectangle_2367" data-name="Rectangle 2367" width="341.3" height="2" transform="translate(404.35 381.02)" fill="#ccc"/>
      <path id="Path_18751" data-name="Path 18751" d="M375.58,360h-5.14l3.99-2,.12-.06.03.06Z" transform="translate(59 88)" fill="#2f2e41"/>
      <path id="Path_18752" data-name="Path 18752" d="M410.61,360h-5.14l1-2,.03-.06.12.06Z" transform="translate(59 88)" fill="#2f2e41"/>
      <path id="Path_18756" data-name="Path 18756" d="M806,350.491v155h-2v-155q0-8.055-.63-15.96c-.05-.67-.1-1.33-.16-2a200.662,200.662,0,0,0-31.2-91.02c-.43-.67-.86-1.33-1.3-2A201.969,201.969,0,0,0,603,148.5c-.33-.01-.67-.01-1-.01s-.67,0-1,.01q-5.685.015-11.28.36a200.6,200.6,0,0,0-66.6,15.67,203.248,203.248,0,0,0-89.83,74.98c-.44.67-.87,1.33-1.3,2a200.661,200.661,0,0,0-31.2,91.02c-.06.67-.11,1.33-.16,2q-.63,7.9-.63,15.96v155h-2v-155q0-9.12.79-18.03a203.862,203.862,0,0,1,191.85-185.65q5.64-.315,11.36-.32a204.228,204.228,0,0,1,203.21,186.02Q805.99,341.391,806,350.491Z" transform="translate(-27 141.509)" fill="#3f3d56"/>
    </g>
  </g>
</svg>
