<svg xmlns="http://www.w3.org/2000/svg" xmlns:xlink="http://www.w3.org/1999/xlink" width="1500" height="1500" viewBox="0 0 1500 1500">
  <defs>
    <clipPath id="clip-path">
      <rect id="Rectangle_2196" data-name="Rectangle 2196" width="1200" height="967" transform="translate(150 266)" fill="#fff"/>
    </clipPath>
    <clipPath id="clip-undraw_book_reading_re_fu2c">
      <rect width="1500" height="1500"/>
    </clipPath>
  </defs>
  <g id="undraw_book_reading_re_fu2c" clip-path="url(#clip-undraw_book_reading_re_fu2c)">
    <rect width="1500" height="1500" fill="#fff"/>
    <g id="undraw_book_reading_re_fu2c-2" data-name="undraw_book_reading_re_fu2c">
      <g id="undraw_book_reading_re_fu2c-3" data-name="undraw_book_reading_re_fu2c">
        <rect id="Rectangle_2195" data-name="Rectangle 2195" width="1500" height="1500" fill="#fff" opacity="0"/>
        <g id="Group_442" data-name="Group 442" clip-path="url(#clip-path)">
          <path id="Path_16087" data-name="Path 16087" d="M648.459,1089.18l13.165-4.24-10.071-52.84-19.43,6.26Z" fill="#a0616a"/>
          <path id="Path_16088" data-name="Path 16088" d="M660.133,1077.11h-.014l-13.8,5.37H646.3l-3.193,1.25,7.116,30.71.379,1.65,9.358-3-.218-1.7-.963-7.68,5.833,6.12,1.267,1.34,24.8-7.97a5.894,5.894,0,0,0,3.763-7.37c-.527-5.22-24.537-9.17-28.058-11.12l-2.865-8.93-3.385,1.33Z" fill="#2f2e41"/>
          <path id="Path_16089" data-name="Path 16089" d="M624.3,905.657a12.677,12.677,0,0,1,4.27,6.877l2.826,12.078,29.817,128.828-32.636,12.27c-21.021-41.98-33.579-68.293-34.289-97.815a123,123,0,0,1,2.211-25.7s-21.25,14.476-46.5,31.043c-2.218,1.453-4.47,2.931-6.753,4.405-20.95,13.653-43.532,27.968-58.592,36.358-9.162,5.11-17.929,5.07-25.793,1.95-22.451-8.85-37.75-42.6-34.778-53.056l33.916-50.517,41.957,20.934,4.386,2.184,73.384-43.1a29.548,29.548,0,0,1,33.776,2.693l12.8,10.568Z" fill="#2f2e41"/>
          <path id="Path_16090" data-name="Path 16090" d="M1310.29,656.052c10.36-19.078,17.09-37.783,19.49-55.037-9.61-1.124-18.1-.341-25.52,2.152,12.77-21.3,21.3-47.537,10.2-61-6.99-7.424-16.03-12.982-26.7-16.673,3.45-15.995,3.49-30.982-.45-44.157-18.26-61.341-139.14,49.175-216.28,1.341-32.34-20.046-67.15,5.212-95.347,45.83a81.989,81.989,0,0,0,21.04,35.917,88.124,88.124,0,0,1-36.54-10.922c-30.171,54.18-48.406,122.005-39.275,152.668,5.927,19.894,20.114,33.263,40.021,40.147-3.453,16,71.171,130.818,84.921,130.7,36.55-.318,47.92-83.408,72.32,23.072l-54.36,332.225h78.74V889.688c21.91-33.854,44.54-11.211,96.7-37.56C1399.24,771.308,1331.04,682.23,1310.29,656.052Z" fill="#f2f2f2"/>
          <path id="Path_16091" data-name="Path 16091" d="M641.585,509.179c13-23.94,21.445-47.413,24.461-69.064-12.054-1.41-22.717-.428-32.027,2.7,16.03-26.731,26.731-59.652,12.8-76.552-8.772-9.316-20.109-16.29-33.51-20.922,4.334-20.072,4.386-38.878-.555-55.411-22.917-76.975-174.6,61.708-271.406,1.683-40.582-25.156-84.268,6.54-119.65,57.51a102.9,102.9,0,0,0,26.4,45.071,110.578,110.578,0,0,1-45.852-13.7c-37.861,67.988-60.744,153.1-49.285,191.579,7.436,24.964,25.24,41.74,50.221,50.379-4.334,20.072,89.307,164.16,106.561,164.01,45.871-.4,60.134-104.666,90.759,28.953l-68.222,416.9H431.1V802.363c27.494-42.483,55.894-14.068,121.349-47.133,200.763-101.419,115.176-213.2,89.139-246.051Z" fill="#f2f2f2"/>
          <path id="Path_16092" data-name="Path 16092" d="M843.791,1207.16a3.133,3.133,0,0,0,2.272-5.43l-.215-.86c.029-.07.057-.13.086-.2a8.417,8.417,0,0,1,15.529.05c2.54,6.13,5.774,12.26,6.57,18.73a24.935,24.935,0,0,1-.437,8.57,99.971,99.971,0,0,0,9.083-41.5,96.394,96.394,0,0,0-.6-10.76q-.5-4.4-1.374-8.72a101.183,101.183,0,0,0-20.031-42.85,26.848,26.848,0,0,1-11.18-11.6,20.519,20.519,0,0,1-1.865-5.61c.544.07,2.052-8.23,1.642-8.73.758-1.16,2.116-1.73,2.944-2.85,4.12-5.59,9.8-4.62,12.76,2.98,6.33,3.2,6.391,8.5,2.507,13.6-2.471,3.24-2.811,7.63-4.979,11.11.223.28.455.56.678.85a101.593,101.593,0,0,1,10.611,16.82,42.355,42.355,0,0,1,2.523-19.65c2.415-5.83,6.942-10.74,10.928-15.78,4.789-6.05,14.607-3.41,15.451,4.27.008.07.016.14.024.22-.593.33-1.173.69-1.739,1.06a4.26,4.26,0,0,0,1.714,7.75l.087.01a42.45,42.45,0,0,1-1.115,6.33c5.114,19.79-5.927,27-21.691,27.32-.348.18-.687.36-1.035.53a104.063,104.063,0,0,1,5.585,26.31,98.5,98.5,0,0,1-.071,15.9l.027-.19a26.042,26.042,0,0,1,8.878-15.03c6.832-5.61,16.484-7.68,23.855-12.19a4.879,4.879,0,0,1,7.476,4.75l-.031.19a29.334,29.334,0,0,0-3.2,1.55c-.592.33-1.172.69-1.739,1.06a4.261,4.261,0,0,0,1.715,7.75l.087.01.178.03a42.408,42.408,0,0,1-7.789,12.2c-3.2,17.28-16.932,18.92-31.622,13.89h-.009a103.92,103.92,0,0,1-6.969,20.36H844.415c-.09-.28-.17-.56-.25-.84a28.391,28.391,0,0,0,6.888-.41c-1.847-2.27-3.694-4.56-5.541-6.82a1.768,1.768,0,0,1-.116-.14c-.937-1.16-1.882-2.31-2.819-3.47h0a41.425,41.425,0,0,1,1.214-10.56v-.01Z" fill="#f2f2f2"/>
          <path id="Path_16093" data-name="Path 16093" d="M988,1199.13a4.276,4.276,0,0,0,3.093-7.41l-.292-1.16c.038-.09.077-.19.116-.28a11.455,11.455,0,0,1,21.139.08c3.46,8.33,7.86,16.68,8.95,25.49a34.159,34.159,0,0,1-.6,11.67,136.149,136.149,0,0,0,12.37-56.5,130.645,130.645,0,0,0-.82-14.65c-.45-3.98-1.06-7.95-1.87-11.87a137.53,137.53,0,0,0-27.27-58.33,36.627,36.627,0,0,1-15.218-15.8,28.032,28.032,0,0,1-2.539-7.64c.741.1,2.794-11.19,2.236-11.89,1.032-1.56,2.88-2.34,4.008-3.87,5.609-7.61,13.333-6.28,17.373,4.06,8.62,4.35,8.7,11.57,3.41,18.51-3.36,4.42-3.83,10.39-6.78,15.12.31.39.62.77.93,1.16a139.182,139.182,0,0,1,14.44,22.9,57.535,57.535,0,0,1,3.44-26.74c3.28-7.94,9.45-14.63,14.87-21.49,6.52-8.24,19.89-4.64,21.04,5.81l.03.3c-.81.45-1.6.94-2.37,1.45a5.792,5.792,0,0,0,2.34,10.54l.12.02a58.714,58.714,0,0,1-1.52,8.62c6.96,26.94-8.07,36.76-29.53,37.2-.48.24-.94.48-1.41.71a141.019,141.019,0,0,1,7.6,35.82,134.908,134.908,0,0,1-.09,21.65l.03-.26a35.385,35.385,0,0,1,12.09-20.46c9.3-7.64,22.44-10.46,32.47-16.61,4.83-2.95,11.02.87,10.18,6.47-.01.09-.03.18-.04.27a39.672,39.672,0,0,0-4.36,2.1c-.81.46-1.6.94-2.37,1.45a5.8,5.8,0,0,0,2.34,10.55l.11.01a2.164,2.164,0,0,0,.25.04,57.959,57.959,0,0,1-10.61,16.62c-4.35,23.52-23.05,25.75-43.05,18.9h-.01a141.546,141.546,0,0,1-9.49,27.72H988.853c-.121-.38-.23-.77-.34-1.15a38.27,38.27,0,0,0,9.378-.55c-2.515-3.09-5.029-6.2-7.543-9.29a1.949,1.949,0,0,1-.158-.18c-1.276-1.58-2.563-3.15-3.839-4.73h0A56.493,56.493,0,0,1,988,1199.13Z" fill="#f2f2f2"/>
          <path id="Path_16094" data-name="Path 16094" d="M1178.11,1207.16a3.133,3.133,0,0,0,2.27-5.43l-.22-.86c.03-.07.06-.13.09-.2a8.418,8.418,0,0,1,15.53.05c2.54,6.13,5.77,12.26,6.57,18.73a25.186,25.186,0,0,1-.44,8.57,99.984,99.984,0,0,0,9.08-41.5,96.853,96.853,0,0,0-.59-10.76q-.5-4.4-1.38-8.72a101.111,101.111,0,0,0-20.03-42.85,26.869,26.869,0,0,1-11.18-11.6,20.337,20.337,0,0,1-1.86-5.61c.54.07,2.05-8.23,1.64-8.73.76-1.16,2.11-1.73,2.94-2.85,4.12-5.59,9.8-4.62,12.76,2.98,6.33,3.2,6.39,8.5,2.51,13.6-2.47,3.24-2.81,7.63-4.98,11.11.22.28.45.56.68.85a101.524,101.524,0,0,1,10.61,16.82,42.409,42.409,0,0,1,2.52-19.65c2.42-5.83,6.94-10.74,10.93-15.78,4.79-6.05,14.61-3.41,15.45,4.27a1.5,1.5,0,0,1,.02.22c-.59.33-1.17.69-1.73,1.06a4.258,4.258,0,0,0,1.71,7.75l.09.01a42.588,42.588,0,0,1-1.12,6.33c5.11,19.79-5.93,27-21.69,27.32-.35.18-.69.36-1.04.53a100.025,100.025,0,0,1,3.82,13.8,101.489,101.489,0,0,1,1.77,12.51,98.154,98.154,0,0,1-.07,15.9l.03-.19a26.05,26.05,0,0,1,8.87-15.03c6.84-5.61,16.49-7.68,23.86-12.19a4.874,4.874,0,0,1,7.47,4.75l-.03.19a30.393,30.393,0,0,0-3.2,1.55c-.59.33-1.17.69-1.74,1.06a4.262,4.262,0,0,0,1.72,7.75l.08.01c.07.01.12.02.18.03a42.2,42.2,0,0,1-7.79,12.2c-3.19,17.28-16.93,18.92-31.62,13.89h-.01a103.266,103.266,0,0,1-6.97,20.36h-24.89c-.09-.28-.17-.56-.25-.84a28.425,28.425,0,0,0,6.89-.41c-1.85-2.27-3.7-4.56-5.54-6.82a1.494,1.494,0,0,1-.12-.14c-.94-1.16-1.88-2.31-2.82-3.47h0a41.6,41.6,0,0,1,1.21-10.56l.01-.01Z" fill="#f2f2f2"/>
          <path id="Path_16095" data-name="Path 16095" d="M560.061,1198.4a4.374,4.374,0,0,0,3.168-7.58l-.3-1.2c.039-.09.079-.19.119-.28a11.733,11.733,0,0,1,21.65.08c3.542,8.53,8.05,17.08,9.16,26.11a34.773,34.773,0,0,1-.609,11.95,139.431,139.431,0,0,0,12.663-57.86,134.388,134.388,0,0,0-.833-15q-.69-6.135-1.916-12.17a141.005,141.005,0,0,0-27.927-59.73,37.516,37.516,0,0,1-15.587-16.18,28.7,28.7,0,0,1-2.6-7.82c.759.1,2.861-11.47,2.289-12.18,1.057-1.6,2.95-2.4,4.1-3.97,5.744-7.79,13.658-6.43,17.789,4.16,8.825,4.46,8.911,11.85,3.5,18.96-3.445,4.52-3.918,10.65-6.941,15.49.311.4.634.78.945,1.18a141.731,141.731,0,0,1,14.794,23.46,59,59,0,0,1,3.518-27.39c3.367-8.13,9.678-14.98,15.235-22,6.676-8.45,20.365-4.76,21.541,5.94.011.1.022.21.033.31-.825.47-1.634.96-2.424,1.48a5.936,5.936,0,0,0,2.39,10.8l.121.02a58.931,58.931,0,0,1-1.555,8.82c7.13,27.6-8.263,37.65-30.241,38.1-.485.25-.958.5-1.443.73a145,145,0,0,1,7.787,36.68,137.323,137.323,0,0,1-.1,22.17l.037-.26a36.267,36.267,0,0,1,12.378-20.95c9.525-7.83,22.982-10.72,33.259-17.01,4.946-3.03,11.285.88,10.422,6.62-.014.1-.028.19-.042.28a39.142,39.142,0,0,0-4.466,2.15c-.826.47-1.634.96-2.424,1.49a5.929,5.929,0,0,0,2.39,10.79l.121.02c.087.01.162.03.249.04a59.167,59.167,0,0,1-10.86,17.02c-4.458,24.08-23.6,26.37-44.087,19.35h-.013a144.888,144.888,0,0,1-9.715,28.39H560.931c-.124-.39-.236-.79-.348-1.17a39.621,39.621,0,0,0,9.6-.57q-3.862-4.755-7.725-9.52a2.188,2.188,0,0,1-.162-.18c-1.306-1.62-2.624-3.23-3.931-4.84v-.01a57.815,57.815,0,0,1,1.692-14.72Z" fill="#f2f2f2"/>
          <path id="Path_16096" data-name="Path 16096" d="M372.712,1207.16a3.133,3.133,0,0,0,2.272-5.43l-.214-.86c.028-.07.056-.13.085-.2a8.418,8.418,0,0,1,15.53.05c2.539,6.13,5.773,12.26,6.569,18.73a24.911,24.911,0,0,1-.437,8.57,99.957,99.957,0,0,0,9.084-41.5,96.628,96.628,0,0,0-.6-10.76q-.495-4.4-1.374-8.72a101.2,101.2,0,0,0-20.032-42.85,26.853,26.853,0,0,1-11.18-11.6,20.55,20.55,0,0,1-1.865-5.61c.545.07,2.052-8.23,1.642-8.73.759-1.16,2.116-1.73,2.945-2.85,4.119-5.59,9.8-4.62,12.759,2.98,6.33,3.2,6.391,8.5,2.507,13.6-2.471,3.24-2.81,7.63-4.979,11.11.223.28.455.56.679.85a101.726,101.726,0,0,1,10.611,16.82,42.343,42.343,0,0,1,2.523-19.65c2.415-5.83,6.941-10.74,10.928-15.78,4.788-6.05,14.606-3.41,15.45,4.27.008.07.016.14.024.22-.592.33-1.172.69-1.739,1.06a4.26,4.26,0,0,0,1.715,7.75l.086.01a42.458,42.458,0,0,1-1.115,6.33c5.114,19.79-5.927,27-21.691,27.32-.348.18-.687.36-1.035.53a104.008,104.008,0,0,1,5.586,26.31,98.612,98.612,0,0,1-.072,15.9l.027-.19a26.047,26.047,0,0,1,8.878-15.03c6.832-5.61,16.485-7.68,23.856-12.19a4.878,4.878,0,0,1,7.475,4.75l-.03.19a29.243,29.243,0,0,0-3.2,1.55c-.593.33-1.173.69-1.739,1.06a4.26,4.26,0,0,0,1.714,7.75l.087.01.178.03a42.365,42.365,0,0,1-7.789,12.2c-3.2,17.28-16.931,18.92-31.622,13.89H405.2a103.92,103.92,0,0,1-6.969,20.36H373.336c-.089-.28-.169-.56-.25-.84a28.4,28.4,0,0,0,6.889-.41c-1.847-2.27-3.694-4.56-5.541-6.82a1.42,1.42,0,0,1-.116-.14c-.937-1.16-1.883-2.31-2.82-3.47h0a41.38,41.38,0,0,1,1.214-10.56v-.01Z" fill="#f2f2f2"/>
          <path id="Path_16097" data-name="Path 16097" d="M474.256,795.662s-44.071-2.072-34.362,10.185c6.318,7.977,35.771,52.9,52.48,61.9a16.124,16.124,0,0,0,22.438-7.817l31.139-72.014-20.43-7.417L500.8,837.476l-26.545-41.814Z" fill="#a0616a"/>
          <path id="Path_16098" data-name="Path 16098" d="M536.129,791.362a15.207,15.207,0,1,0-15.2-15.207A15.2,15.2,0,0,0,536.129,791.362Z" fill="#a0616a"/>
          <path id="Path_16099" data-name="Path 16099" d="M553.634,860.014,494.5,854.082l.241-.8c11.918-39.816,21.652-74.545,20.024-96.321a1.654,1.654,0,0,1,.787-1.535,1.679,1.679,0,0,1,1.75-.006l62.519,37.869-4.7,21.283Z" fill="#e6e6e6"/>
          <path id="Path_16100" data-name="Path 16100" d="M487.669,898.1l13.618,44.447-61.97,6.705,22.1-56.682Z" fill="#a0616a"/>
          <path id="Path_16101" data-name="Path 16101" d="M502.837,863.7c-1.478,10.562-1.824,20.544.028,26.1.492,1.478,7.863,12.281,8.288,13.825,3.8,13.8-12.433,16.59-12.433,16.59l-62.294,20.7a3.861,3.861,0,0,1-4.315-5.975,45.407,45.407,0,0,0,9.444-29.224c-.518-19.995-9.36-51.8-14.248-67.965a28.6,28.6,0,0,1,1.354-20.13l6.954-15.274,10.112-22.189L448.988,764,478,765.381l3.578,13.147,26.994,41.239a14.552,14.552,0,0,1,1.506,12.747,171.9,171.9,0,0,0-7.239,31.189Z" fill="#ffc932"/>
          <path id="Path_16102" data-name="Path 16102" d="M422.228,746.576c11.59,14.461-8.966,37.742,3.633,51.332a18.043,18.043,0,0,1-7.6,1.216c-.125-.442-.263-.885-.4-1.313a49.146,49.146,0,0,0-4.476-10,28.009,28.009,0,0,1-.829,10.272,24.846,24.846,0,0,1-5.567-2.5c-.221-.124-.414-.249-.635-.4a55.4,55.4,0,0,1-5.885-35.032c-3.841,5.544-7.543,11.364-9.588,17.765-6.921-10.949-11.728-23.433-11.425-36.318.3-14.336,8.013-29.046,21.109-34.88,5.4-2.406,11.812-3.484,15.583-8.046,2.031-2.433,3-5.558,4.462-8.378s3.744-5.558,6.894-6.014a5.384,5.384,0,0,1,4.918,2.267c-5.1,5.585-4.808,14.655-3.15,22.272,1.768,8.184,7.115,18.332,1.658,24.678-3.357,3.912-19.8-.747-8.7,13.078Z" fill="#2f2e41"/>
          <path id="Path_16103" data-name="Path 16103" d="M489.676,734.231c-.748-2.621,4.41,13.4,1.921,13.69-11.336,1.3-26.9,8.076-34.791,11.237-.355-.042-.711-.083-1.056-.135-.847-.093-1.673-.227-2.489-.382-18.383-3.481-25.452-31.74-25.452-32,0-1.27,3.046-36.163,7.846-36.68a35.446,35.446,0,0,1,3.8-.206h11.91a55.424,55.424,0,0,1,7.477-1.085h.021c34.331-3.917,50.908,11.178,41.117,30.594-.011.021-.032.041-.042.062-.513.764-.962,1.487-1.36,2.179-.387.651-.711,1.271-.993,1.86-2.185,4.544,3.432,10.263-.293,11.33-4.954,1.42,13.03,48.08-6.58,48.08,9.539,2.715,1.033-41.314-1.032-48.545Z" fill="#2f2e41"/>
          <path id="Path_16104" data-name="Path 16104" d="M468.272,761.611a28.221,28.221,0,1,0-28.2-28.221A28.21,28.21,0,0,0,468.272,761.611Z" fill="#a0616a"/>
          <path id="Path_16105" data-name="Path 16105" d="M499.977,720.8c-.47.249-.926.47-1.4.705-.5.235-.994.47-1.478.691a36.689,36.689,0,0,1-8.814,2.889,33.58,33.58,0,0,0-3.053-6.829,19.283,19.283,0,0,1-.607,7.161A11.4,11.4,0,0,1,475.3,720.8a26.045,26.045,0,0,0-2.142-9.4,15.125,15.125,0,0,1-2.486,9.4l.483,38.7c-9.67,6.429,11.218,28.106,8.289,33.18-.843-.1-29.563-36.1-30.378-36.249-18.388-3.484-30.061-33.788-28.569-35.5a31.645,31.645,0,0,1,3.274-14.06A32.28,32.28,0,0,1,436.056,693.5a57.492,57.492,0,0,1,9.809-3.678c.083-.028.152-.041.235-.069,1.036-.277,2.1-.539,3.149-.747a58.26,58.26,0,0,1,6.6-1.009c.165-.014.317-.014.469-.014a4.9,4.9,0,0,1,2.515.692h.027a4.839,4.839,0,0,1,1.4,1.258,4.79,4.79,0,0,1,1.022,2.986h10.457c.387,0,.774,0,1.161.028a28.05,28.05,0,0,1,27.035,26.377c.028.5.042.982.042,1.48Z" fill="#2f2e41"/>
          <path id="Path_16106" data-name="Path 16106" d="M456.9,693.191A18.578,18.578,0,1,1,438.319,674.6,18.585,18.585,0,0,1,456.9,693.191Z" fill="#2f2e41"/>
          <path id="Path_16107" data-name="Path 16107" d="M1323.52,1108.01v-54.16a20.049,20.049,0,0,0,0-37.09V993.833a4.835,4.835,0,1,0-9.67,0v21.427c-194.46,6.95-387.323,13.54-489.037,0V993.833a4.835,4.835,0,1,0-9.67,0v21.427H328.868V993.833a4.835,4.835,0,1,0-9.67,0v22.427a20.042,20.042,0,0,0,0,38.1v53.14a20.042,20.042,0,0,0,0,38.1v79.11a4.835,4.835,0,1,0,9.67,0V1146.6H815.143v78.11a4.835,4.835,0,1,0,9.67,0V1146.6H1313.85v78.11a4.835,4.835,0,1,0,9.67,0V1145.1a20.049,20.049,0,0,0,0-37.09Zm-994.652-52.66c189.188-15.38,374.3-28.45,486.275,0-10.344,17.21-10.537,34.26,0,51.16-129.045,15.24-301.745,10.35-486.275,0C334.672,1091.33,333.6,1073.93,328.868,1055.35Zm495.945,51.16v-51.16H1313.85c-20.47,16.6-23.59,33.58,0,51.16C1219.21,1138.86,1008.55,1116.31,824.813,1106.51Z" fill="#e6e6e6"/>
          <path id="Path_16108" data-name="Path 16108" d="M552.942,881.25a15.276,15.276,0,0,1-3.039-.307l-57.85-11.763a12.377,12.377,0,0,1-8.859-17.108l22.37-50.924a7.365,7.365,0,0,1,7.141-4.385l51.954,2.9a2.546,2.546,0,0,0,1.691-4.561l-49.984-38.4a.812.812,0,0,1,.911-1.341l64.064,37.428a11.732,11.732,0,0,1,5.325,13.565l-19.41,64.216a14.935,14.935,0,0,1-14.314,10.677ZM516.578,756.556l0,0Z" fill="#3f3d56"/>
          <path id="Path_16109" data-name="Path 16109" d="M486.355,820.33s-30.235-32.155-31.774-16.59c-1,10.129-11.046,62.912-5.285,81a16.126,16.126,0,0,0,21.557,9.995l72.415-30.091-9.53-19.546-57.357,23.753Z" fill="#a0616a"/>
          <path id="Path_16110" data-name="Path 16110" d="M544.377,864.571a15.207,15.207,0,1,0-15.2-15.207A15.2,15.2,0,0,0,544.377,864.571Z" fill="#a0616a"/>
          <path id="Path_16111" data-name="Path 16111" d="M264.626,1231.35a1.639,1.639,0,0,0,1.644,1.65H1348.36a1.645,1.645,0,0,0,0-3.29H266.27A1.637,1.637,0,0,0,264.626,1231.35Z" fill="#ccc"/>
          <path id="Path_16112" data-name="Path 16112" d="M468.185,1186.11l11.114,8.24,37.03-38.99-16.4-12.15Z" fill="#a0616a"/>
          <path id="Path_16113" data-name="Path 16113" d="M482.257,1198.09l5.579-7.54-3.054-1.99-12.416-8.11-2.878-1.87-20.789,23.7-1.115,1.27,7.892,5.84,1.249-1.15,5.668-5.26-1.563,8.3-.346,1.83,20.923,15.5a5.881,5.881,0,0,0,8.183-1.23c3.937-3.47-6.862-25.29-7.333-29.29Z" fill="#2f2e41"/>
          <path id="Path_16114" data-name="Path 16114" d="M603.712,1069.53l-2.8,3.22-8.15,9.35-87.129,99.41-29.011-19.35c21.8-41.59,35.821-67.15,59.361-84.96a122.792,122.792,0,0,1,22.145-13.2s-24.148-8.82-52.329-19.67c-2.473-.96-4.988-1.93-7.516-2.92-23.305-9.06-48.1-19.05-63.7-26.39-9.491-4.47-14.574-11.62-16.633-19.828-5.926-23.405,12.53-55.534,22.753-59.225l60.784-1.922,7.5,46.313.787,4.839s22.269,10.769,45.644,21.543c3.509,1.6,7.031,3.22,10.513,4.79,5.526,2.49,10.913,4.9,15.914,7.07l.343.15a37.287,37.287,0,0,1,22.464,36.7l-.938,14.08Z" fill="#2f2e41"/>
        </g>
      </g>
      <path id="Path_16651" data-name="Path 16651" d="M504.218,148.46,517.7,137.674c-10.476-1.156-14.781,4.558-16.542,9.08-8.184-3.4-17.094,1.055-17.094,1.055l26.982,9.8a20.418,20.418,0,0,0-6.831-9.145Z" transform="translate(254.444 178.477)" fill="#2f2e41"/>
      <path id="Path_16652" data-name="Path 16652" d="M644.218,223.46,657.7,212.674c-10.476-1.156-14.781,4.558-16.542,9.08-8.184-3.4-17.094,1.055-17.094,1.055l26.982,9.8a20.418,20.418,0,0,0-6.831-9.145Z" transform="translate(319.531 213.345)" fill="#2f2e41"/>
      <path id="Path_16653" data-name="Path 16653" d="M493.218,287.46,506.7,276.674c-10.476-1.156-14.781,4.558-16.542,9.08-8.184-3.4-17.094,1.055-17.094,1.055l26.982,9.8a20.418,20.418,0,0,0-6.831-9.145Z" transform="translate(249.33 243.099)" fill="#2f2e41"/>
    </g>
  </g>
</svg>
