<svg xmlns="http://www.w3.org/2000/svg" xmlns:xlink="http://www.w3.org/1999/xlink" width="1500" height="1500" viewBox="0 0 1500 1500">
  <defs>
    <clipPath id="clip-path">
      <rect id="Rectangle_2362" data-name="Rectangle 2362" width="1155" height="1068" transform="translate(173 216)" fill="#fff"/>
    </clipPath>
    <clipPath id="clip-undraw_reading_re_29f8">
      <rect width="1500" height="1500"/>
    </clipPath>
  </defs>
  <g id="undraw_reading_re_29f8" clip-path="url(#clip-undraw_reading_re_29f8)">
    <rect width="1500" height="1500" fill="#fff"/>
    <g id="undraw_reading_re_29f8-2" data-name="undraw_reading_re_29f8">
      <g id="undraw_reading_re_29f8-3" data-name="undraw_reading_re_29f8">
        <rect id="Rectangle_2361" data-name="Rectangle 2361" width="1500" height="1500" fill="#fff" opacity="0"/>
        <g id="Group_501" data-name="Group 501" clip-path="url(#clip-path)">
          <path id="Path_18658" data-name="Path 18658" d="M1225.26,1071.64,1131.5,932.287s141.99,49.6,125.88,139.353Z" fill="#e5e5e5"/>
          <path id="Path_18659" data-name="Path 18659" d="M253.374,1072.56l-3.56-.07a826.534,826.534,0,0,1,12.635-118.036c15.392-83.481,40.985-138.308,76.069-162.956l2.044,2.915C258.605,851.99,253.415,1070.36,253.374,1072.56Z" fill="#e5e5e5"/>
          <path id="Path_18660" data-name="Path 18660" d="M297.865,1071.71l-3.559-.07c.076-3.94,2.3-96.9,38.872-122.587l2.044,2.914C300.126,976.623,297.882,1070.76,297.865,1071.71Z" fill="#e5e5e5"/>
          <path id="Path_18661" data-name="Path 18661" d="M360.81,794.735a17.807,17.807,0,1,0-17.8-17.807A17.8,17.8,0,0,0,360.81,794.735Z" fill="#ffc932"/>
          <path id="Path_18662" data-name="Path 18662" d="M352,947.876a17.807,17.807,0,1,0-17.8-17.807A17.8,17.8,0,0,0,352,947.876Z" fill="#ffc932"/>
          <path id="Path_18663" data-name="Path 18663" d="M289.57,805.41c3.344,21.376-5.373,40.5-5.373,40.5s-14.14-15.539-17.485-36.914,5.373-40.5,5.373-40.5S286.225,784.034,289.57,805.41Z" fill="#e5e5e5"/>
          <path id="Path_18664" data-name="Path 18664" d="M347.742,857.325c-20.454,7.02-40.788,1.762-40.788,1.762s12.828-16.639,33.281-23.659,40.788-1.762,40.788-1.762S368.2,850.3,347.742,857.325Z" fill="#e5e5e5"/>
          <path id="Path_18665" data-name="Path 18665" d="M348.4,992.947a55.378,55.378,0,0,1-28.588,1.235,50.481,50.481,0,0,1,51.916-17.819A55.419,55.419,0,0,1,348.4,992.947Z" fill="#e5e5e5"/>
          <path id="Path_18666" data-name="Path 18666" d="M1326.22,1075.2H174.78a1.781,1.781,0,0,1-1.259-3.04,1.754,1.754,0,0,1,1.259-.52H1326.22a1.77,1.77,0,0,1,1.26.52,1.794,1.794,0,0,1,.52,1.26,1.775,1.775,0,0,1-1.78,1.78Z" fill="#cbcbcb"/>
          <path id="Path_18667" data-name="Path 18667" d="M902.291,1157.29l-14.56,37.92-153.093-38.15,21.487-55.96Z" fill="#ffb7b7"/>
          <path id="Path_18668" data-name="Path 18668" d="M942.737,1161.74,895.791,1284l-1.546-.59a51,51,0,0,1-29.288-65.87v-.01l28.674-74.67Z" fill="#3f3d56"/>
          <path id="Path_18669" data-name="Path 18669" d="M669.659,682.533l-66.716,6.25-3.31,198.626a37.373,37.373,0,0,0,39.781,33.915l42.3-2.916Z" fill="#e5e5e5"/>
          <path id="Path_18670" data-name="Path 18670" d="M904.863,672.758l-45.65-.588-2.7,236.008a73.5,73.5,0,0,0,75.861-76.311Z" fill="#e5e5e5"/>
          <path id="Path_18671" data-name="Path 18671" d="M639.984,992.02a145.614,145.614,0,0,1-4.7,20.23c-2.3,6.48-5.86,12.47-7.966,19.02-6.713,20.87,2.594,44.14,17.459,60.25a98.191,98.191,0,0,0,47.91,28.47c13.41,3.38,27.354,3.86,41.173,4.33,38.268,1.3,77.52,2.46,113.781-9.85a197.544,197.544,0,0,0,33.056-15.02,24.852,24.852,0,0,0,8.578-6.76c2.765-3.94,3.119-9.05,3.1-13.86-.081-16.23-3.37-32.38-2.59-48.6.433-8.98,2.113-17.95,1.286-26.91a49.63,49.63,0,0,0-37.914-42.754c-10.286-2.21-20.955-1.006-31.428,0a800.877,800.877,0,0,1-81.792,3.659c-27.9-.178-55.633-4.44-83.4-4.885-8.21-.132-8.044,2.4-10.658,10.352a193.684,193.684,0,0,0-5.9,22.326Z" fill="#3f3d56"/>
          <path id="Path_18672" data-name="Path 18672" d="M530.876,978.828a82.486,82.486,0,0,0-22.966-2.443A57.357,57.357,0,0,0,454.694,1044a96.5,96.5,0,0,0,9.1,24.88c6.091,12.37,13.4,24.71,24.671,32.63,6.6,4.64,14.23,7.53,21.773,10.37l59.385,22.39c8.736,3.29,17.474,6.58,26.3,9.64a514.107,514.107,0,0,0,137.35,27.32c14.259.85,28.734,1.08,42.645-2.17,3.3-.77,6.823-1.92,8.734-4.72a14.96,14.96,0,0,0,1.951-6.45l3.654-25.59c.515-3.61,1.01-7.4-.31-10.79-1.674-4.31-5.87-7.01-9.871-9.31-39.041-22.44-84.627-34.82-117.489-65.61-7.736-7.25-14.21-18.74-23.609-23.66-10.659-5.59-23.212-8.78-34.229-13.92C580.66,997.759,556.979,984.832,530.876,978.828Z" fill="#3f3d56"/>
          <path id="Path_18673" data-name="Path 18673" d="M590.163,1013.34c20.99,6.58,109.61,52.17,124.8,68.09-2.036.73-71.117-38-73.19-38.63-18.842-5.65-37.789-11.35-55.683-19.63-3.6-1.67-23.385-9.5-22.489-14.04C564.612,1004,586.437,1012.17,590.163,1013.34Z" opacity="0.1"/>
          <path id="Path_18674" data-name="Path 18674" d="M716.841,615.773l-56.515,42.936s-59.634,1.866-57.619,40.01,25.882,218.738,25.882,218.738l5.178,62.139,98.225,28a321.237,321.237,0,0,0,162.815,3.49h0l-11.673-62.337s47.266-283.12,18.791-295.585-46.271-8.9-46.271-8.9L819.963,613.1Z" fill="#e5e5e5"/>
          <path id="Path_18675" data-name="Path 18675" d="M884.129,546.421c0,55.739-51.509,47.308-115.048,47.308s-115.047,8.431-115.047-47.308S679.2,391.883,769.081,391.883C862.065,391.883,884.129,490.683,884.129,546.421Z" fill="#3f3d56"/>
          <path id="Path_18676" data-name="Path 18676" d="M828.886,565.311a77.439,77.439,0,1,0-109.483,0A77.494,77.494,0,0,0,828.886,565.311Z" fill="#ffb7b7"/>
          <path id="Path_18677" data-name="Path 18677" d="M679.25,508.574h30.62l13.508-37.846,2.7,37.846h14.635l7.88-22.077,1.576,22.077H858.913a81.975,81.975,0,0,0-81.951-82H761.2a81.975,81.975,0,0,0-81.952,82Z" fill="#3f3d56"/>
          <path id="Path_18678" data-name="Path 18678" d="M846.756,624.678H691.926V811.653h154.83Z" fill="#ffc932"/>
          <path id="Path_18679" data-name="Path 18679" d="M700.458,1155.51l14.561,37.92,153.094-38.15-21.49-55.97Z" fill="#ffb7b7"/>
          <path id="Path_18680" data-name="Path 18680" d="M709.117,1141.08l28.673,74.67,0,.01a51,51,0,0,1-29.289,65.87l-1.545.59-46.946-122.26Z" fill="#3f3d56"/>
          <path id="Path_18681" data-name="Path 18681" d="M1006.48,964.313a106.81,106.81,0,0,1,37.65-2.574c10.06,1.11,20.44,3.913,27.78,10.884,8.95,8.485,11.82,21.607,12.06,33.937a106.027,106.027,0,0,1-23.03,67.72,61.4,61.4,0,0,1-13.17,12.68,86.936,86.936,0,0,1-17.13,8.26l-132.989,52.49c-34.986,13.81-70.1,27.65-106.59,36.76a8.3,8.3,0,0,1-11.092-3.88c-.029-.06-.058-.12-.086-.18a275.8,275.8,0,0,1-29.148-53.35,3.584,3.584,0,0,1,.159-4.73,3.506,3.506,0,0,1,1.429-.94l94.065-54.08c6.738-3.87,13.551-7.8,19.146-13.2a47.561,47.561,0,0,0,9.829-13.69c1.95-4.07,2.132-13.69,4.623-16.7,2.438-2.95,10.78-3.19,14.633-4.35a131.339,131.339,0,0,0,15.929-6.02c21.042-9.42,39.779-23.106,59.951-34.135a153.756,153.756,0,0,1,35.981-14.9Z" fill="#3f3d56"/>
          <path id="Path_18682" data-name="Path 18682" d="M953.15,1004.7c-16.16,12.14-37.086,23.31-53.1,35.77-5.466,4.26-96.593,55.52-97.881,62.33,14.943,2.52,110.131-64.11,123.75-70.76s25.691-16.03,37.655-25.33c3.048-2.37,15.969-9.505,7.217-12.155C965.858,993.062,956.79,1002.27,953.15,1004.7Z" opacity="0.1"/>
          <path id="Path_18683" data-name="Path 18683" d="M1243.62,536.022a55.644,55.644,0,1,0-55.61-55.644A55.629,55.629,0,0,0,1243.62,536.022Z" fill="#f1f1f1"/>
          <path id="Path_18684" data-name="Path 18684" d="M1140.7,545.987a39.034,39.034,0,1,0-39.01-39.034A39.025,39.025,0,0,0,1140.7,545.987Z" fill="#f1f1f1"/>
          <path id="Path_18685" data-name="Path 18685" d="M426.092,520.525a31.3,31.3,0,1,0-31.28-31.3A31.288,31.288,0,0,0,426.092,520.525Z" fill="#f1f1f1"/>
          <path id="Path_18686" data-name="Path 18686" d="M477.59,541.571a21.955,21.955,0,1,0-21.943-21.956A21.949,21.949,0,0,0,477.59,541.571Z" fill="#f1f1f1"/>
          <path id="Path_18687" data-name="Path 18687" d="M781.027,263.849a23.925,23.925,0,1,0-23.91-23.925A23.918,23.918,0,0,0,781.027,263.849Z" fill="#f1f1f1"/>
          <path id="Path_18688" data-name="Path 18688" d="M638.535,743.986l2.137-16.507s79.728,5.823,67.27,25.411-42.712,21.368-42.712,21.368Z" fill="#3f3d56" opacity="0.17"/>
          <path id="Path_18689" data-name="Path 18689" d="M698.717,672.209a31.123,31.123,0,0,1,22.645,13.913h0a31.124,31.124,0,0,1-10.113,43.74,29.98,29.98,0,0,1-4.121,2.026L658.123,881.874a24.9,24.9,0,1,1-44.769-21.808l52.116-148.32a31.072,31.072,0,0,1,33.247-39.537Z" fill="#ffb7b7"/>
          <path id="Path_18690" data-name="Path 18690" d="M639.266,728.885s28.08,48,68.676,24L668.6,903.535H635.452l-34.29-6.408,9.6-62.241Z" fill="#e5e5e5"/>
          <path id="Path_18691" data-name="Path 18691" d="M839.764,761.7,816.5,729.74s11.18-33.144,54.531-21.024C871.033,708.716,898.619,770.5,839.764,761.7Z" fill="#e5e5e5"/>
          <path id="Path_18692" data-name="Path 18692" d="M839.764,761.7,816.5,729.74s11.18-33.144,54.531-21.024C871.033,708.716,898.619,770.5,839.764,761.7Z" fill="#3f3d56" opacity="0.17"/>
          <path id="Path_18693" data-name="Path 18693" d="M845.923,650.051a30.918,30.918,0,0,1,16.611,36.765L914.65,835.137a24.9,24.9,0,1,1-44.769,21.807L820.876,706.959a29.988,29.988,0,0,1-4.121-2.027,31.129,31.129,0,0,1-10.114-43.739h0a31.128,31.128,0,0,1,22.646-13.913A30.73,30.73,0,0,1,845.923,650.051Z" fill="#ffb7b7"/>
          <path id="Path_18694" data-name="Path 18694" d="M816.5,729.739s38.379,23.3,54.531-21.024L925.114,851.2l-16.07,28.122-2.324.194a59.419,59.419,0,0,1-50.869-21.522h0A118.177,118.177,0,0,1,831.185,805.5Z" fill="#e5e5e5"/>
        </g>
      </g>
      <ellipse id="Ellipse_1492" data-name="Ellipse 1492" cx="68.311" cy="68.311" rx="68.311" ry="68.311" transform="translate(864.184 247.243)" fill="#ffc932"/>
      <path id="Path_18720" data-name="Path 18720" d="M957,107.119c-3.952-13.239-15.118-21.876-28.606-23.769-.138-.014-.29.014-.428,0a3.951,3.951,0,0,0-.58-.138,85.271,85.271,0,0,0-54.848,11.94,88.081,88.081,0,0,1-11.746,6.163,113.842,113.842,0,0,1-41.112,8.9c-.111,0-.221.014-.332.014a33.752,33.752,0,0,0-30.195,24.335,3.95,3.95,0,0,0,1.769,4.325,17.42,17.42,0,0,0,7.131,3.634q8.52,1.8,17.08,3.3,16.728,2.923,33.622,4.726,11.193,1.2,22.428,1.879c15.45.967,30.969,1.2,46.446.719,7.656-.235,15.035-.484,22.055-3.869A32.718,32.718,0,0,0,952.33,138.24,37.249,37.249,0,0,0,957,107.119Z" transform="translate(128.391 176.091)" fill="#f2f2f2"/>
    </g>
  </g>
</svg>
