<svg xmlns="http://www.w3.org/2000/svg" xmlns:xlink="http://www.w3.org/1999/xlink" width="1500" height="1500" viewBox="0 0 1500 1500">
  <defs>
    <clipPath id="clip-path">
      <rect id="Rectangle_2369" data-name="Rectangle 2369" width="1236" height="871" transform="translate(132 315)" fill="#fff"/>
    </clipPath>
    <clipPath id="clip-undraw_scrum_board_re_wk7v">
      <rect width="1500" height="1500"/>
    </clipPath>
  </defs>
  <g id="undraw_scrum_board_re_wk7v" clip-path="url(#clip-undraw_scrum_board_re_wk7v)">
    <rect width="1500" height="1500" fill="#fff"/>
    <g id="undraw_scrum_board_re_wk7v-2" data-name="undraw_scrum_board_re_wk7v">
      <g id="undraw_scrum_board_re_wk7v-3" data-name="undraw_scrum_board_re_wk7v">
        <rect id="Rectangle_2368" data-name="Rectangle 2368" width="1500" height="1500" fill="#fff" opacity="0"/>
        <g id="Group_503" data-name="Group 503" clip-path="url(#clip-path)">
          <path id="Path_18757" data-name="Path 18757" d="M405.887,402.249H327.065a28.608,28.608,0,0,0-28.581,28.582v85.458c-1.007-.06-2.015-.15-3.008-.27A100.787,100.787,0,1,1,405.436,399.24C405.6,400.233,405.752,401.241,405.887,402.249Z" fill="#f2f2f2"/>
          <path id="Path_18758" data-name="Path 18758" d="M1336.41,399.24H327.064a31.624,31.624,0,0,0-31.589,31.59V963.35a31.623,31.623,0,0,0,31.589,31.59H1336.41A31.619,31.619,0,0,0,1368,963.35V430.83a31.621,31.621,0,0,0-31.59-31.59Zm28.58,564.11a28.61,28.61,0,0,1-28.58,28.582H327.064a28.608,28.608,0,0,1-28.581-28.582V430.83a28.608,28.608,0,0,1,28.581-28.581H1336.41a28.609,28.609,0,0,1,28.58,28.581Z" fill="#3f3d56"/>
          <path id="Path_18759" data-name="Path 18759" d="M1286.77,485.542H376.7a1.5,1.5,0,0,1,0-3.009H1286.77a1.532,1.532,0,0,1,1.07.441,1.505,1.505,0,0,1,0,2.127A1.532,1.532,0,0,1,1286.77,485.542Z" fill="#3f3d56"/>
          <path id="Path_18760" data-name="Path 18760" d="M633.93,930.255a1.5,1.5,0,0,1-1.5-1.5V433.838a1.5,1.5,0,1,1,3.008,0V928.751a1.5,1.5,0,0,1-1.5,1.5Z" fill="#3f3d56"/>
          <path id="Path_18761" data-name="Path 18761" d="M861.071,930.255a1.506,1.506,0,0,1-1.505-1.5V433.838a1.5,1.5,0,0,1,3.009,0V928.751a1.506,1.506,0,0,1-1.5,1.5Z" fill="#3f3d56"/>
          <path id="Path_18762" data-name="Path 18762" d="M1088.21,930.255a1.491,1.491,0,0,1-1.06-.441,1.511,1.511,0,0,1-.44-1.063V433.838a1.511,1.511,0,0,1,.44-1.063,1.51,1.51,0,0,1,2.57,1.063V928.751a1.521,1.521,0,0,1-1.51,1.5Z" fill="#3f3d56"/>
          <path id="Path_18763" data-name="Path 18763" d="M487.892,640.811H432.927a6.777,6.777,0,0,1-6.769-6.769V569.178a6.777,6.777,0,0,1,6.769-6.77h54.965a6.776,6.776,0,0,1,6.769,6.77v64.864a6.776,6.776,0,0,1-6.769,6.769Z" fill="#ffc932"/>
          <path id="Path_18764" data-name="Path 18764" d="M566.113,825.839H511.148a6.777,6.777,0,0,1-6.769-6.77V754.205a6.776,6.776,0,0,1,6.769-6.769h54.965a6.776,6.776,0,0,1,6.769,6.769v64.864a6.777,6.777,0,0,1-6.769,6.77Z" fill="#ffc932"/>
          <path id="Path_18765" data-name="Path 18765" d="M743.613,679.923H688.648a6.777,6.777,0,0,1-6.769-6.77V608.289a6.776,6.776,0,0,1,6.769-6.769h54.965a6.776,6.776,0,0,1,6.769,6.769v64.864a6.777,6.777,0,0,1-6.769,6.77Z" fill="#ffc932"/>
          <path id="Path_18766" data-name="Path 18766" d="M973.761,609.222H918.8a6.777,6.777,0,0,1-6.769-6.77V537.588a6.777,6.777,0,0,1,6.769-6.77h54.965a6.776,6.776,0,0,1,6.769,6.77v64.864a6.776,6.776,0,0,1-6.769,6.77Z" fill="#ffc932"/>
          <path id="Path_18767" data-name="Path 18767" d="M1185.86,609.222h-54.97a6.786,6.786,0,0,1-6.77-6.77V537.588a6.786,6.786,0,0,1,6.77-6.77h54.97a6.786,6.786,0,0,1,6.77,6.77v64.864a6.786,6.786,0,0,1-6.77,6.77Z" fill="#ffc932"/>
          <path id="Path_18768" data-name="Path 18768" d="M1283.64,627.272h-54.97a6.786,6.786,0,0,1-6.77-6.769V555.638a6.786,6.786,0,0,1,6.77-6.769h54.97a6.786,6.786,0,0,1,6.77,6.769V620.5a6.786,6.786,0,0,1-6.77,6.769Z" fill="#e6e6e6"/>
          <path id="Path_18769" data-name="Path 18769" d="M1240.01,743.1h-54.96a6.769,6.769,0,0,1-6.77-6.769V671.469a6.769,6.769,0,0,1,6.77-6.77h54.96a6.769,6.769,0,0,1,6.77,6.77v64.864a6.769,6.769,0,0,1-6.77,6.769Z" fill="#e6e6e6"/>
          <path id="Path_18770" data-name="Path 18770" d="M1053.49,719.034H998.521a6.777,6.777,0,0,1-6.769-6.769V647.4a6.777,6.777,0,0,1,6.769-6.769h54.969a6.786,6.786,0,0,1,6.77,6.769v64.865a6.786,6.786,0,0,1-6.77,6.769Z" fill="#ff6584"/>
          <path id="Path_18771" data-name="Path 18771" d="M946.685,743.1H891.72a6.777,6.777,0,0,1-6.769-6.769V671.469a6.777,6.777,0,0,1,6.769-6.77h54.965a6.777,6.777,0,0,1,6.769,6.77v64.864a6.777,6.777,0,0,1-6.769,6.769Z" fill="#e6e6e6"/>
          <path id="Path_18772" data-name="Path 18772" d="M716.537,845.4H661.572a6.777,6.777,0,0,1-6.769-6.769V773.762a6.777,6.777,0,0,1,6.769-6.77h54.965a6.777,6.777,0,0,1,6.769,6.77v64.864a6.777,6.777,0,0,1-6.769,6.769Z" fill="#e6e6e6"/>
          <path id="Path_18773" data-name="Path 18773" d="M438.252,759.649H383.287a6.776,6.776,0,0,1-6.769-6.769V688.015a6.776,6.776,0,0,1,6.769-6.769h54.965a6.777,6.777,0,0,1,6.769,6.769V752.88a6.777,6.777,0,0,1-6.769,6.769Z" fill="#ff6584"/>
          <path id="Path_18774" data-name="Path 18774" d="M593.189,640.811H538.224a6.777,6.777,0,0,1-6.769-6.769V569.178a6.777,6.777,0,0,1,6.769-6.77h54.965a6.777,6.777,0,0,1,6.769,6.77v64.864a6.777,6.777,0,0,1-6.769,6.769Z" fill="#e6e6e6"/>
          <path id="Path_18775" data-name="Path 18775" d="M548.188,460.917H462.447a6.017,6.017,0,1,1,0-12.034h85.741a6.017,6.017,0,1,1,0,12.034Z" fill="#ccc"/>
          <path id="Path_18776" data-name="Path 18776" d="M790.372,460.917H704.63a6.017,6.017,0,0,1,0-12.034h85.742a6.017,6.017,0,1,1,0,12.034Z" fill="#ccc"/>
          <path id="Path_18777" data-name="Path 18777" d="M1017.51,460.917H931.769a6.017,6.017,0,1,1,0-12.034h85.741a6.017,6.017,0,1,1,0,12.034Z" fill="#ccc"/>
          <path id="Path_18778" data-name="Path 18778" d="M1229.61,460.917h-85.74a6.017,6.017,0,1,1,0-12.034h85.74a6.017,6.017,0,0,1,0,12.034Z" fill="#ccc"/>
          <path id="Path_18779" data-name="Path 18779" d="M356.145,901.511a15.127,15.127,0,0,1-13.087-19.15L304.5,846.467l20.387-5.172L362.8,872.048a15.209,15.209,0,0,1-6.657,29.463Z" fill="#ffb8b8"/>
          <path id="Path_18780" data-name="Path 18780" d="M409.388,1166.81H427.83l8.773-71.13H409.385Z" fill="#ffb8b8"/>
          <path id="Path_18781" data-name="Path 18781" d="M463.4,1183.93l-57.959.01v-22.4H441a22.4,22.4,0,0,1,22.394,22.39Z" fill="#3f3d56"/>
          <path id="Path_18782" data-name="Path 18782" d="M282.943,1153.49l17.823,4.75,26.777-66.49-26.3-7Z" fill="#ffb8b8"/>
          <path id="Path_18783" data-name="Path 18783" d="M330.73,1183.94l-56.009-14.91,5.76-21.64,34.37,9.15a22.392,22.392,0,0,1,15.879,27.4Z" fill="#3f3d56"/>
          <path id="Path_18784" data-name="Path 18784" d="M432.789,1153.34h-28.14a7.119,7.119,0,0,1-7.109-6.45L380.457,969.481a5.638,5.638,0,0,0-11.013-1.075l-49.6,165.774a7.134,7.134,0,0,1-8.574,4.88l-26.178-6.55a7.015,7.015,0,0,1-2.529-1.19,7.146,7.146,0,0,1-2.657-7.51c.428-1.67,42.737-167.02,43.106-168.719,9.586-70.654,21.055-89.587,27.216-99.757.511-.841.979-1.616,1.4-2.347.528-.915,3.779-10,5.842-15.892a7.2,7.2,0,0,1,3.663-4.479c25.889-13.241,56.179-4.075,64.846-.951A7.047,7.047,0,0,1,429.5,834.4c26,39.219,13.24,266.994,10.418,312.264a7.14,7.14,0,0,1-7.127,6.68Z" fill="#3f3d56"/>
          <path id="Path_18785" data-name="Path 18785" d="M360.17,703.988a36.947,36.947,0,1,0-36.945-36.947A36.946,36.946,0,0,0,360.17,703.988Z" fill="#ffb8b8"/>
          <path id="Path_18786" data-name="Path 18786" d="M356.256,844.267l-.266-.257c-.5-.482-49.723-48.709-43.353-93.3,2.725-19.074,18.157-31.261,44.628-35.246a40.818,40.818,0,0,1,45.127,28.763l26.173,89.482Z" fill="#ccc"/>
          <path id="Path_18787" data-name="Path 18787" d="M331.06,878.569l-35.076-34.856a19.759,19.759,0,0,1-5.235-18.64L307.73,756a15.575,15.575,0,1,1,30.068,8.114l-17.877,60.768,28.909,31.044Z" fill="#ccc"/>
          <path id="Path_18788" data-name="Path 18788" d="M519.2,759.612a15.125,15.125,0,0,1-22.388,6.06l-46.827,24.271,2.07-20.617,41.512-25.692A15.208,15.208,0,0,1,519.2,759.612Z" fill="#ffb8b8"/>
          <path id="Path_18789" data-name="Path 18789" d="M491.7,774.96l-45.648,19.727a19.267,19.267,0,0,1-18.769-2.014l-58.047-41.592a15.576,15.576,0,1,1,18.706-24.9l49.773,39.175,39.562-15.307Z" fill="#ccc"/>
          <path id="Path_18790" data-name="Path 18790" d="M366.294,678.88c4.558-5.711,13.073-6.018,19.334-9.785,8.2-4.935,11.591-15.962,8.949-25.161s-10.437-16.368-19.373-19.8-18.877-3.471-28.3-1.814c-14.035,2.468-27.853,9.019-36.413,20.412s-10.738,28.079-2.98,40.033c3.565,5.494,9.069,10.029,10.492,16.422,1.869,8.393-4.018,16.489-10.325,22.333-7.185,6.658-15.429,12.235-21.724,19.741s-10.493,17.76-7.621,27.125c2.407,7.847,9.411,13.628,17.091,16.524s16.044,3.313,24.25,3.474c7.968.155,16.432-.038,23.144-4.335,7.186-4.6,11.023-13.325,11.307-21.853s-2.566-16.882-6.385-24.512c-2.277-4.547-4.923-8.954-6.436-13.809s-1.774-10.365.648-14.837c2.546-4.7,7.7-7.535,12.943-8.566.272-.053.56-.1.862-.143a11.131,11.131,0,0,0,9.527-12.979C364.683,684.022,364.735,680.834,366.294,678.88Z" fill="#3f3d56"/>
          <path id="Path_18791" data-name="Path 18791" d="M858.892,1168.38H840.45l-8.772-71.13H858.9Z" fill="#a0616a"/>
          <path id="Path_18792" data-name="Path 18792" d="M827.278,1163.12h35.566v22.39H804.885a22.38,22.38,0,0,1,22.393-22.39Z" fill="#3f3d56"/>
          <path id="Path_18793" data-name="Path 18793" d="M992.7,1147.49l-16.774,7.67-37.536-61.06,24.758-11.31Z" fill="#a0616a"/>
          <path id="Path_18794" data-name="Path 18794" d="M961.758,1155.84l32.351-14.78,9.3,20.37-52.718,24.08a22.39,22.39,0,0,1,11.066-29.67Z" fill="#3f3d56"/>
          <path id="Path_18795" data-name="Path 18795" d="M939,928.536a15.127,15.127,0,0,0,1.205-23.164l21.679-49.19-27.541,4.667-16.364,46A15.209,15.209,0,0,0,939,928.536Z" fill="#a0616a"/>
          <path id="Path_18796" data-name="Path 18796" d="M857.717,1149.63H840.1a6.8,6.8,0,0,1-6.751-6.28L823.74,886.779a6.768,6.768,0,0,1,7.409-7.227l101.89,10.821a6.773,6.773,0,0,1,6.111,6.609l2.135,113.178a5.206,5.206,0,0,0,.352,1.79l41.795,108.39a6.778,6.778,0,0,1-3.976,8.79l-17.853,6.58a6.781,6.781,0,0,1-8.359-3.26L901.9,1032.61a6.672,6.672,0,0,1-.608-1.72l-8.771-42.258a5.265,5.265,0,0,0-10.385.47L864.442,1143.63a6.772,6.772,0,0,1-6.725,6Z" fill="#3f3d56"/>
          <path id="Path_18797" data-name="Path 18797" d="M866.491,686.167a36.947,36.947,0,1,0-36.946-36.947A36.946,36.946,0,0,0,866.491,686.167Z" fill="#a0616a"/>
          <path id="Path_18798" data-name="Path 18798" d="M891.827,910.24a131.859,131.859,0,0,1-70.508-21.359l-.36-.248L821,888.2,835.128,723.6a23.2,23.2,0,0,1,21.961-21.153c18.315-.841,42.917.22,56.087,10.029,19.9,14.824,29.494,37.147,26.317,61.243-6.588,49.971.875,117.379,1.748,124.9l.063.543-.5.227a116.218,116.218,0,0,1-48.981,10.847Z" fill="#ffc932"/>
          <path id="Path_18799" data-name="Path 18799" d="M941.071,898.9a7.53,7.53,0,0,1-5.536-2.441l-8.082-8.817a7.562,7.562,0,0,1-1.668-7.213l18.428-62.373-28.039-58.884A13.251,13.251,0,0,1,939.8,747.2l38.049,61.739a17.976,17.976,0,0,1,1.083,16.846l-31,68.693a7.5,7.5,0,0,1-5.665,4.332,7.653,7.653,0,0,1-1.2.1Z" fill="#ffc932"/>
          <path id="Path_18800" data-name="Path 18800" d="M680.654,779.756a15.126,15.126,0,0,0,22.562-5.382l53.307,6.914-12.251-25.105-48.743-2.716a15.209,15.209,0,0,0-14.875,26.289Z" fill="#a0616a"/>
          <path id="Path_18801" data-name="Path 18801" d="M798.153,793.466a20.3,20.3,0,0,1-2.775-.191l-83.863-11.632a8.372,8.372,0,0,1-6.872-5.928h0a8.37,8.37,0,0,1,.865-6.666l6.94-11.507a8.4,8.4,0,0,1,7.154-4.04h.012l73.1.084,54.595-48.916a14.794,14.794,0,0,1,20.276,21.536L813.108,786.8a20.1,20.1,0,0,1-14.955,6.67Z" fill="#ffc932"/>
          <path id="Path_18802" data-name="Path 18802" d="M870.691,682.089c3.376-7.814,6.233-18.221-.243-23.745-3.756-3.205-9.166-3.212-14.088-3.61-13.865-1.123-28.137-7.5-34.914-19.652s-2.993-30.213,9.793-35.694c8.618-3.694,18.5-1.177,27.519,1.381l27.085,7.681c8.048,2.282,16.5,4.8,22.291,10.833,9.24,9.623,8.55,25.891,1.211,37.033s-18.392,22.761-31.044,26.991Z" fill="#3f3d56"/>
          <path id="Path_18803" data-name="Path 18803" d="M1244.36,1186H133.79a1.8,1.8,0,0,1-.687-.13,1.813,1.813,0,0,1-.972-.97,1.845,1.845,0,0,1-.137-.69,1.783,1.783,0,0,1,.527-1.27,1.743,1.743,0,0,1,.582-.39,1.8,1.8,0,0,1,.687-.13H1244.36a1.8,1.8,0,0,1,.69.13,1.65,1.65,0,0,1,.58.39,1.745,1.745,0,0,1,.39.58,1.81,1.81,0,0,1,.14.69,1.8,1.8,0,0,1-.53,1.27,1.738,1.738,0,0,1-1.27.52Z" fill="#3f3d56"/>
        </g>
      </g>
      <circle id="Ellipse_1494" data-name="Ellipse 1494" cx="90.087" cy="90.087" r="90.087" transform="translate(62.693 835)" fill="#e4e4e4"/>
      <path id="Path_18806" data-name="Path 18806" d="M236.764,360.416a90.094,90.094,0,0,0,150.112,95.346,90.1,90.1,0,1,1-150.112-95.346Z" transform="translate(-150.5 504.5)" opacity="0.2" style="isolation: isolate"/>
      <path id="Path_18807" data-name="Path 18807" d="M158.029,197.087h.248L162.732,452.5h-9.4Z" transform="translate(-5 728)" fill="#3f3d56"/>
    </g>
  </g>
</svg>
